<?xml version="1.0" encoding="utf-8" standalone="no"?>
<!DOCTYPE svg PUBLIC "-//W3C//DTD SVG 1.1//EN"
  "http://www.w3.org/Graphics/SVG/1.1/DTD/svg11.dtd">
<svg xmlns:xlink="http://www.w3.org/1999/xlink" width="720pt" height="360pt" viewBox="0 0 720 360" xmlns="http://www.w3.org/2000/svg" version="1.1">
 <metadata>
  <rdf:RDF xmlns:dc="http://purl.org/dc/elements/1.1/" xmlns:cc="http://creativecommons.org/ns#" xmlns:rdf="http://www.w3.org/1999/02/22-rdf-syntax-ns#">
   <cc:Work>
    <dc:type rdf:resource="http://purl.org/dc/dcmitype/StillImage"/>
    <dc:date>2025-04-15T20:52:54.206956</dc:date>
    <dc:format>image/svg+xml</dc:format>
    <dc:creator>
     <cc:Agent>
      <dc:title>Matplotlib v3.10.1, https://matplotlib.org/</dc:title>
     </cc:Agent>
    </dc:creator>
   </cc:Work>
  </rdf:RDF>
 </metadata>
 <defs>
  <style type="text/css">*{stroke-linejoin: round; stroke-linecap: butt}</style>
 </defs>
 <g id="figure_1">
  <g id="patch_1">
   <path d="M 0 360 
L 720 360 
L 720 0 
L 0 0 
z
" style="fill: #ffffff"/>
  </g>
  <g id="axes_1">
   <g id="patch_2">
    <path d="M 38.27 292.038576 
L 650.23 292.038576 
L 650.23 26.88 
L 38.27 26.88 
z
" style="fill: #ffffff"/>
   </g>
   <g id="FillBetweenPolyCollection_1">
    <defs>
     <path id="mebf01033b3" d="M 66.086364 -67.961424 
L 66.086364 -67.961424 
L 68.748217 -67.961424 
L 71.41007 -67.961424 
L 74.071923 -67.961424 
L 76.733776 -67.961424 
L 79.395629 -67.961424 
L 82.057482 -67.961424 
L 84.719334 -67.961424 
L 87.381187 -67.961424 
L 90.04304 -67.961424 
L 92.704893 -67.962288 
L 95.366746 -67.967422 
L 98.028599 -67.986135 
L 100.690452 -68.02284 
L 103.352305 -68.103689 
L 106.014158 -68.222346 
L 108.676011 -68.366817 
L 111.337864 -68.50817 
L 113.999717 -68.651393 
L 116.66157 -68.77672 
L 119.323423 -68.8889 
L 121.985276 -69.005782 
L 124.647129 -69.156203 
L 127.308982 -69.345105 
L 129.970835 -69.579445 
L 132.632688 -69.876161 
L 135.294541 -70.125087 
L 137.956394 -70.362354 
L 140.618247 -70.60629 
L 143.2801 -70.896384 
L 145.941953 -71.232828 
L 148.603806 -71.622963 
L 151.265659 -72.103926 
L 153.927512 -72.739772 
L 156.589365 -73.402968 
L 159.251218 -74.238512 
L 161.913071 -75.145883 
L 164.574924 -76.157902 
L 167.236777 -77.179853 
L 169.89863 -78.484844 
L 172.560483 -80.107279 
L 175.222336 -81.809939 
L 177.884189 -83.805139 
L 180.546042 -86.133089 
L 183.207895 -88.990895 
L 185.869748 -92.604788 
L 188.531601 -96.858366 
L 191.193454 -101.443206 
L 193.855307 -105.636903 
L 196.51716 -109.320273 
L 199.179013 -112.618306 
L 201.840866 -115.371993 
L 204.502719 -117.735113 
L 207.164572 -119.637854 
L 209.826425 -121.768314 
L 212.488278 -123.237113 
L 215.15013 -124.540185 
L 217.811983 -125.764089 
L 220.473836 -127.035493 
L 223.135689 -128.675873 
L 225.797542 -130.809692 
L 228.459395 -133.466696 
L 231.121248 -136.347389 
L 233.783101 -140.202148 
L 236.444954 -145.217235 
L 239.106807 -150.182277 
L 241.76866 -155.230711 
L 244.430513 -159.640707 
L 247.092366 -163.350467 
L 249.754219 -166.018459 
L 252.416072 -167.790499 
L 255.077925 -169.380883 
L 257.739778 -170.716678 
L 260.401631 -171.658357 
L 263.063484 -172.213547 
L 265.725337 -172.663274 
L 268.38719 -172.9324 
L 271.049043 -173.141598 
L 273.710896 -173.306126 
L 276.372749 -173.476507 
L 279.034602 -173.634893 
L 281.696455 -173.834206 
L 284.358308 -174.059958 
L 287.020161 -174.344054 
L 289.682014 -174.674117 
L 292.343867 -175.109689 
L 295.00572 -175.567094 
L 297.667573 -176.208458 
L 300.329426 -177.144906 
L 302.991279 -178.719744 
L 305.653132 -180.867333 
L 308.314985 -183.967204 
L 310.976838 -188.289299 
L 313.638691 -192.828556 
L 316.300544 -199.514443 
L 318.962397 -206.817128 
L 321.62425 -214.122883 
L 324.286103 -220.837415 
L 326.947956 -226.209626 
L 329.609809 -230.404139 
L 332.271662 -233.960886 
L 334.933515 -236.897813 
L 337.595368 -239.177926 
L 340.257221 -240.98552 
L 342.919074 -242.328177 
L 345.580926 -243.676447 
L 348.242779 -246.319633 
L 350.904632 -251.637865 
L 353.566485 -260.952208 
L 356.228338 -272.608847 
L 358.890191 -283.896703 
L 361.552044 -293.091813 
L 364.213897 -297.944771 
L 366.87575 -299.841515 
L 369.537603 -301.348171 
L 372.199456 -302.804735 
L 374.861309 -303.875531 
L 377.523162 -304.578742 
L 380.185015 -305.125296 
L 382.846868 -305.510825 
L 385.508721 -305.767668 
L 388.170574 -305.970196 
L 390.832427 -306.149262 
L 393.49428 -306.285576 
L 396.156133 -306.387872 
L 398.817986 -306.478844 
L 401.479839 -306.555614 
L 404.141692 -306.606714 
L 406.803545 -306.656807 
L 409.465398 -306.703876 
L 412.127251 -306.756943 
L 414.789104 -306.807611 
L 417.450957 -306.876272 
L 420.11281 -306.976937 
L 422.774663 -307.110612 
L 425.436516 -307.297403 
L 428.098369 -307.558373 
L 430.760222 -307.995625 
L 433.422075 -308.544385 
L 436.083928 -309.319521 
L 438.745781 -310.464543 
L 441.407634 -312.224636 
L 444.069487 -314.342381 
L 446.73134 -316.396071 
L 449.393193 -318.143209 
L 452.055046 -319.242649 
L 454.716899 -320.053914 
L 457.378752 -320.83975 
L 460.040605 -321.299745 
L 462.702458 -321.650823 
L 465.364311 -321.975032 
L 468.026164 -322.214506 
L 470.688017 -322.445295 
L 473.34987 -322.650943 
L 476.011722 -322.860044 
L 478.673575 -323.013728 
L 481.335428 -323.177392 
L 483.997281 -323.319896 
L 486.659134 -323.449925 
L 489.320987 -323.598618 
L 491.98284 -323.741266 
L 494.644693 -323.919181 
L 497.306546 -324.172665 
L 499.968399 -324.525039 
L 502.630252 -324.99487 
L 505.292105 -325.606966 
L 507.953958 -326.344532 
L 510.615811 -327.237894 
L 513.277664 -328.196317 
L 515.939517 -329.107096 
L 518.60137 -329.926758 
L 521.263223 -330.723005 
L 523.925076 -331.243361 
L 526.586929 -331.670297 
L 529.248782 -331.987549 
L 531.910635 -332.214931 
L 534.572488 -332.374373 
L 537.234341 -332.518268 
L 539.896194 -332.612551 
L 542.558047 -332.68697 
L 545.2199 -332.749729 
L 547.881753 -332.797519 
L 550.543606 -332.840606 
L 553.205459 -332.840606 
L 555.867312 -332.840606 
L 558.529165 -332.840606 
L 561.191018 -332.840606 
L 563.852871 -332.840606 
L 566.514724 -332.840606 
L 569.176577 -332.840606 
L 571.83843 -332.840606 
L 574.500283 -332.840606 
L 577.162136 -332.840606 
L 579.823989 -332.840606 
L 582.485842 -332.840606 
L 585.147695 -332.840606 
L 587.809548 -332.840606 
L 590.471401 -332.840606 
L 593.133254 -332.840606 
L 595.795107 -332.840606 
L 598.45696 -332.846939 
L 601.118813 -332.852217 
L 603.780666 -332.860134 
L 606.442518 -332.898039 
L 609.104371 -332.931194 
L 611.766224 -332.980231 
L 614.428077 -333.016409 
L 617.08993 -333.053258 
L 619.751783 -333.089964 
L 622.413636 -333.12 
L 622.413636 -67.961424 
L 622.413636 -67.961424 
L 619.751783 -67.961424 
L 617.08993 -67.961424 
L 614.428077 -67.961424 
L 611.766224 -67.961424 
L 609.104371 -67.961424 
L 606.442518 -67.961424 
L 603.780666 -67.961424 
L 601.118813 -67.961424 
L 598.45696 -67.961424 
L 595.795107 -67.961424 
L 593.133254 -67.961424 
L 590.471401 -67.961424 
L 587.809548 -67.961424 
L 585.147695 -67.961424 
L 582.485842 -67.961424 
L 579.823989 -67.961424 
L 577.162136 -67.961424 
L 574.500283 -67.961424 
L 571.83843 -67.961424 
L 569.176577 -67.961424 
L 566.514724 -67.961424 
L 563.852871 -67.961424 
L 561.191018 -67.961424 
L 558.529165 -67.961424 
L 555.867312 -67.961424 
L 553.205459 -67.961424 
L 550.543606 -67.961424 
L 547.881753 -67.961424 
L 545.2199 -67.961424 
L 542.558047 -67.961424 
L 539.896194 -67.961424 
L 537.234341 -67.961424 
L 534.572488 -67.961424 
L 531.910635 -67.961424 
L 529.248782 -67.961424 
L 526.586929 -67.961424 
L 523.925076 -67.961424 
L 521.263223 -67.961424 
L 518.60137 -67.961424 
L 515.939517 -67.961424 
L 513.277664 -67.961424 
L 510.615811 -67.961424 
L 507.953958 -67.961424 
L 505.292105 -67.961424 
L 502.630252 -67.961424 
L 499.968399 -67.961424 
L 497.306546 -67.961424 
L 494.644693 -67.961424 
L 491.98284 -67.961424 
L 489.320987 -67.961424 
L 486.659134 -67.961424 
L 483.997281 -67.961424 
L 481.335428 -67.961424 
L 478.673575 -67.961424 
L 476.011722 -67.961424 
L 473.34987 -67.961424 
L 470.688017 -67.961424 
L 468.026164 -67.961424 
L 465.364311 -67.961424 
L 462.702458 -67.961424 
L 460.040605 -67.961424 
L 457.378752 -67.961424 
L 454.716899 -67.961424 
L 452.055046 -67.961424 
L 449.393193 -67.961424 
L 446.73134 -67.961424 
L 444.069487 -67.961424 
L 441.407634 -67.961424 
L 438.745781 -67.961424 
L 436.083928 -67.961424 
L 433.422075 -67.961424 
L 430.760222 -67.961424 
L 428.098369 -67.961424 
L 425.436516 -67.961424 
L 422.774663 -67.961424 
L 420.11281 -67.961424 
L 417.450957 -67.961424 
L 414.789104 -67.961424 
L 412.127251 -67.961424 
L 409.465398 -67.961424 
L 406.803545 -67.961424 
L 404.141692 -67.961424 
L 401.479839 -67.961424 
L 398.817986 -67.961424 
L 396.156133 -67.961424 
L 393.49428 -67.961424 
L 390.832427 -67.961424 
L 388.170574 -67.961424 
L 385.508721 -67.961424 
L 382.846868 -67.961424 
L 380.185015 -67.961424 
L 377.523162 -67.961424 
L 374.861309 -67.961424 
L 372.199456 -67.961424 
L 369.537603 -67.961424 
L 366.87575 -67.961424 
L 364.213897 -67.961424 
L 361.552044 -67.961424 
L 358.890191 -67.961424 
L 356.228338 -67.961424 
L 353.566485 -67.961424 
L 350.904632 -67.961424 
L 348.242779 -67.961424 
L 345.580926 -67.961424 
L 342.919074 -67.961424 
L 340.257221 -67.961424 
L 337.595368 -67.961424 
L 334.933515 -67.961424 
L 332.271662 -67.961424 
L 329.609809 -67.961424 
L 326.947956 -67.961424 
L 324.286103 -67.961424 
L 321.62425 -67.961424 
L 318.962397 -67.961424 
L 316.300544 -67.961424 
L 313.638691 -67.961424 
L 310.976838 -67.961424 
L 308.314985 -67.961424 
L 305.653132 -67.961424 
L 302.991279 -67.961424 
L 300.329426 -67.961424 
L 297.667573 -67.961424 
L 295.00572 -67.961424 
L 292.343867 -67.961424 
L 289.682014 -67.961424 
L 287.020161 -67.961424 
L 284.358308 -67.961424 
L 281.696455 -67.961424 
L 279.034602 -67.961424 
L 276.372749 -67.961424 
L 273.710896 -67.961424 
L 271.049043 -67.961424 
L 268.38719 -67.961424 
L 265.725337 -67.961424 
L 263.063484 -67.961424 
L 260.401631 -67.961424 
L 257.739778 -67.961424 
L 255.077925 -67.961424 
L 252.416072 -67.961424 
L 249.754219 -67.961424 
L 247.092366 -67.961424 
L 244.430513 -67.961424 
L 241.76866 -67.961424 
L 239.106807 -67.961424 
L 236.444954 -67.961424 
L 233.783101 -67.961424 
L 231.121248 -67.961424 
L 228.459395 -67.961424 
L 225.797542 -67.961424 
L 223.135689 -67.961424 
L 220.473836 -67.961424 
L 217.811983 -67.961424 
L 215.15013 -67.961424 
L 212.488278 -67.961424 
L 209.826425 -67.961424 
L 207.164572 -67.961424 
L 204.502719 -67.961424 
L 201.840866 -67.961424 
L 199.179013 -67.961424 
L 196.51716 -67.961424 
L 193.855307 -67.961424 
L 191.193454 -67.961424 
L 188.531601 -67.961424 
L 185.869748 -67.961424 
L 183.207895 -67.961424 
L 180.546042 -67.961424 
L 177.884189 -67.961424 
L 175.222336 -67.961424 
L 172.560483 -67.961424 
L 169.89863 -67.961424 
L 167.236777 -67.961424 
L 164.574924 -67.961424 
L 161.913071 -67.961424 
L 159.251218 -67.961424 
L 156.589365 -67.961424 
L 153.927512 -67.961424 
L 151.265659 -67.961424 
L 148.603806 -67.961424 
L 145.941953 -67.961424 
L 143.2801 -67.961424 
L 140.618247 -67.961424 
L 137.956394 -67.961424 
L 135.294541 -67.961424 
L 132.632688 -67.961424 
L 129.970835 -67.961424 
L 127.308982 -67.961424 
L 124.647129 -67.961424 
L 121.985276 -67.961424 
L 119.323423 -67.961424 
L 116.66157 -67.961424 
L 113.999717 -67.961424 
L 111.337864 -67.961424 
L 108.676011 -67.961424 
L 106.014158 -67.961424 
L 103.352305 -67.961424 
L 100.690452 -67.961424 
L 98.028599 -67.961424 
L 95.366746 -67.961424 
L 92.704893 -67.961424 
L 90.04304 -67.961424 
L 87.381187 -67.961424 
L 84.719334 -67.961424 
L 82.057482 -67.961424 
L 79.395629 -67.961424 
L 76.733776 -67.961424 
L 74.071923 -67.961424 
L 71.41007 -67.961424 
L 68.748217 -67.961424 
L 66.086364 -67.961424 
z
" style="stroke: #0000ff; stroke-opacity: 0.5"/>
    </defs>
    <g clip-path="url(#p9f39e4371b)">
     <use xlink:href="#mebf01033b3" x="0" y="360" style="fill: #0000ff; fill-opacity: 0.5; stroke: #0000ff; stroke-opacity: 0.5"/>
    </g>
   </g>
   <g id="matplotlib.axis_1">
    <g id="xtick_1">
     <g id="line2d_1">
      <defs>
       <path id="mfafcd7f236" d="M 0 0 
L 0 3.5 
" style="stroke: #000000; stroke-width: 0.8"/>
      </defs>
      <g>
       <use xlink:href="#mfafcd7f236" x="41.369157" y="292.038576" style="stroke: #000000; stroke-width: 0.8"/>
      </g>
     </g>
     <g id="text_1">
      <!-- Nov 2019 -->
      <g transform="translate(37.803845 347.511506) rotate(-75) scale(0.1 -0.1)">
       <defs>
        <path id="DejaVuSans-4e" d="M 628 4666 
L 1478 4666 
L 3547 763 
L 3547 4666 
L 4159 4666 
L 4159 0 
L 3309 0 
L 1241 3903 
L 1241 0 
L 628 0 
L 628 4666 
z
" transform="scale(0.015625)"/>
        <path id="DejaVuSans-6f" d="M 1959 3097 
Q 1497 3097 1228 2736 
Q 959 2375 959 1747 
Q 959 1119 1226 758 
Q 1494 397 1959 397 
Q 2419 397 2687 759 
Q 2956 1122 2956 1747 
Q 2956 2369 2687 2733 
Q 2419 3097 1959 3097 
z
M 1959 3584 
Q 2709 3584 3137 3096 
Q 3566 2609 3566 1747 
Q 3566 888 3137 398 
Q 2709 -91 1959 -91 
Q 1206 -91 779 398 
Q 353 888 353 1747 
Q 353 2609 779 3096 
Q 1206 3584 1959 3584 
z
" transform="scale(0.015625)"/>
        <path id="DejaVuSans-76" d="M 191 3500 
L 800 3500 
L 1894 563 
L 2988 3500 
L 3597 3500 
L 2284 0 
L 1503 0 
L 191 3500 
z
" transform="scale(0.015625)"/>
        <path id="DejaVuSans-20" transform="scale(0.015625)"/>
        <path id="DejaVuSans-32" d="M 1228 531 
L 3431 531 
L 3431 0 
L 469 0 
L 469 531 
Q 828 903 1448 1529 
Q 2069 2156 2228 2338 
Q 2531 2678 2651 2914 
Q 2772 3150 2772 3378 
Q 2772 3750 2511 3984 
Q 2250 4219 1831 4219 
Q 1534 4219 1204 4116 
Q 875 4013 500 3803 
L 500 4441 
Q 881 4594 1212 4672 
Q 1544 4750 1819 4750 
Q 2544 4750 2975 4387 
Q 3406 4025 3406 3419 
Q 3406 3131 3298 2873 
Q 3191 2616 2906 2266 
Q 2828 2175 2409 1742 
Q 1991 1309 1228 531 
z
" transform="scale(0.015625)"/>
        <path id="DejaVuSans-30" d="M 2034 4250 
Q 1547 4250 1301 3770 
Q 1056 3291 1056 2328 
Q 1056 1369 1301 889 
Q 1547 409 2034 409 
Q 2525 409 2770 889 
Q 3016 1369 3016 2328 
Q 3016 3291 2770 3770 
Q 2525 4250 2034 4250 
z
M 2034 4750 
Q 2819 4750 3233 4129 
Q 3647 3509 3647 2328 
Q 3647 1150 3233 529 
Q 2819 -91 2034 -91 
Q 1250 -91 836 529 
Q 422 1150 422 2328 
Q 422 3509 836 4129 
Q 1250 4750 2034 4750 
z
" transform="scale(0.015625)"/>
        <path id="DejaVuSans-31" d="M 794 531 
L 1825 531 
L 1825 4091 
L 703 3866 
L 703 4441 
L 1819 4666 
L 2450 4666 
L 2450 531 
L 3481 531 
L 3481 0 
L 794 0 
L 794 531 
z
" transform="scale(0.015625)"/>
        <path id="DejaVuSans-39" d="M 703 97 
L 703 672 
Q 941 559 1184 500 
Q 1428 441 1663 441 
Q 2288 441 2617 861 
Q 2947 1281 2994 2138 
Q 2813 1869 2534 1725 
Q 2256 1581 1919 1581 
Q 1219 1581 811 2004 
Q 403 2428 403 3163 
Q 403 3881 828 4315 
Q 1253 4750 1959 4750 
Q 2769 4750 3195 4129 
Q 3622 3509 3622 2328 
Q 3622 1225 3098 567 
Q 2575 -91 1691 -91 
Q 1453 -91 1209 -44 
Q 966 3 703 97 
z
M 1959 2075 
Q 2384 2075 2632 2365 
Q 2881 2656 2881 3163 
Q 2881 3666 2632 3958 
Q 2384 4250 1959 4250 
Q 1534 4250 1286 3958 
Q 1038 3666 1038 3163 
Q 1038 2656 1286 2365 
Q 1534 2075 1959 2075 
z
" transform="scale(0.015625)"/>
       </defs>
       <use xlink:href="#DejaVuSans-4e"/>
       <use xlink:href="#DejaVuSans-6f" transform="translate(74.804688 0)"/>
       <use xlink:href="#DejaVuSans-76" transform="translate(135.986328 0)"/>
       <use xlink:href="#DejaVuSans-20" transform="translate(195.166016 0)"/>
       <use xlink:href="#DejaVuSans-32" transform="translate(226.953125 0)"/>
       <use xlink:href="#DejaVuSans-30" transform="translate(290.576172 0)"/>
       <use xlink:href="#DejaVuSans-31" transform="translate(354.199219 0)"/>
       <use xlink:href="#DejaVuSans-39" transform="translate(417.822266 0)"/>
      </g>
     </g>
    </g>
    <g id="xtick_2">
     <g id="line2d_2">
      <g>
       <use xlink:href="#mfafcd7f236" x="76.353511" y="292.038576" style="stroke: #000000; stroke-width: 0.8"/>
      </g>
     </g>
     <g id="text_2">
      <!-- Feb 2020 -->
      <g transform="translate(73.023157 345.757747) rotate(-75) scale(0.1 -0.1)">
       <defs>
        <path id="DejaVuSans-46" d="M 628 4666 
L 3309 4666 
L 3309 4134 
L 1259 4134 
L 1259 2759 
L 3109 2759 
L 3109 2228 
L 1259 2228 
L 1259 0 
L 628 0 
L 628 4666 
z
" transform="scale(0.015625)"/>
        <path id="DejaVuSans-65" d="M 3597 1894 
L 3597 1613 
L 953 1613 
Q 991 1019 1311 708 
Q 1631 397 2203 397 
Q 2534 397 2845 478 
Q 3156 559 3463 722 
L 3463 178 
Q 3153 47 2828 -22 
Q 2503 -91 2169 -91 
Q 1331 -91 842 396 
Q 353 884 353 1716 
Q 353 2575 817 3079 
Q 1281 3584 2069 3584 
Q 2775 3584 3186 3129 
Q 3597 2675 3597 1894 
z
M 3022 2063 
Q 3016 2534 2758 2815 
Q 2500 3097 2075 3097 
Q 1594 3097 1305 2825 
Q 1016 2553 972 2059 
L 3022 2063 
z
" transform="scale(0.015625)"/>
        <path id="DejaVuSans-62" d="M 3116 1747 
Q 3116 2381 2855 2742 
Q 2594 3103 2138 3103 
Q 1681 3103 1420 2742 
Q 1159 2381 1159 1747 
Q 1159 1113 1420 752 
Q 1681 391 2138 391 
Q 2594 391 2855 752 
Q 3116 1113 3116 1747 
z
M 1159 2969 
Q 1341 3281 1617 3432 
Q 1894 3584 2278 3584 
Q 2916 3584 3314 3078 
Q 3713 2572 3713 1747 
Q 3713 922 3314 415 
Q 2916 -91 2278 -91 
Q 1894 -91 1617 61 
Q 1341 213 1159 525 
L 1159 0 
L 581 0 
L 581 4863 
L 1159 4863 
L 1159 2969 
z
" transform="scale(0.015625)"/>
       </defs>
       <use xlink:href="#DejaVuSans-46"/>
       <use xlink:href="#DejaVuSans-65" transform="translate(52.019531 0)"/>
       <use xlink:href="#DejaVuSans-62" transform="translate(113.542969 0)"/>
       <use xlink:href="#DejaVuSans-20" transform="translate(177.019531 0)"/>
       <use xlink:href="#DejaVuSans-32" transform="translate(208.806641 0)"/>
       <use xlink:href="#DejaVuSans-30" transform="translate(272.429688 0)"/>
       <use xlink:href="#DejaVuSans-32" transform="translate(336.052734 0)"/>
       <use xlink:href="#DejaVuSans-30" transform="translate(399.675781 0)"/>
      </g>
     </g>
    </g>
    <g id="xtick_3">
     <g id="line2d_3">
      <g>
       <use xlink:href="#mfafcd7f236" x="110.577335" y="292.038576" style="stroke: #000000; stroke-width: 0.8"/>
      </g>
     </g>
     <g id="text_3">
      <!-- May 2020 -->
      <g transform="translate(106.862393 348.628358) rotate(-75) scale(0.1 -0.1)">
       <defs>
        <path id="DejaVuSans-4d" d="M 628 4666 
L 1569 4666 
L 2759 1491 
L 3956 4666 
L 4897 4666 
L 4897 0 
L 4281 0 
L 4281 4097 
L 3078 897 
L 2444 897 
L 1241 4097 
L 1241 0 
L 628 0 
L 628 4666 
z
" transform="scale(0.015625)"/>
        <path id="DejaVuSans-61" d="M 2194 1759 
Q 1497 1759 1228 1600 
Q 959 1441 959 1056 
Q 959 750 1161 570 
Q 1363 391 1709 391 
Q 2188 391 2477 730 
Q 2766 1069 2766 1631 
L 2766 1759 
L 2194 1759 
z
M 3341 1997 
L 3341 0 
L 2766 0 
L 2766 531 
Q 2569 213 2275 61 
Q 1981 -91 1556 -91 
Q 1019 -91 701 211 
Q 384 513 384 1019 
Q 384 1609 779 1909 
Q 1175 2209 1959 2209 
L 2766 2209 
L 2766 2266 
Q 2766 2663 2505 2880 
Q 2244 3097 1772 3097 
Q 1472 3097 1187 3025 
Q 903 2953 641 2809 
L 641 3341 
Q 956 3463 1253 3523 
Q 1550 3584 1831 3584 
Q 2591 3584 2966 3190 
Q 3341 2797 3341 1997 
z
" transform="scale(0.015625)"/>
        <path id="DejaVuSans-79" d="M 2059 -325 
Q 1816 -950 1584 -1140 
Q 1353 -1331 966 -1331 
L 506 -1331 
L 506 -850 
L 844 -850 
Q 1081 -850 1212 -737 
Q 1344 -625 1503 -206 
L 1606 56 
L 191 3500 
L 800 3500 
L 1894 763 
L 2988 3500 
L 3597 3500 
L 2059 -325 
z
" transform="scale(0.015625)"/>
       </defs>
       <use xlink:href="#DejaVuSans-4d"/>
       <use xlink:href="#DejaVuSans-61" transform="translate(86.279297 0)"/>
       <use xlink:href="#DejaVuSans-79" transform="translate(147.558594 0)"/>
       <use xlink:href="#DejaVuSans-20" transform="translate(206.738281 0)"/>
       <use xlink:href="#DejaVuSans-32" transform="translate(238.525391 0)"/>
       <use xlink:href="#DejaVuSans-30" transform="translate(302.148438 0)"/>
       <use xlink:href="#DejaVuSans-32" transform="translate(365.771484 0)"/>
       <use xlink:href="#DejaVuSans-30" transform="translate(429.394531 0)"/>
      </g>
     </g>
    </g>
    <g id="xtick_4">
     <g id="line2d_4">
      <g>
       <use xlink:href="#mfafcd7f236" x="145.561688" y="292.038576" style="stroke: #000000; stroke-width: 0.8"/>
      </g>
     </g>
     <g id="text_4">
      <!-- Aug 2020 -->
      <g transform="translate(141.995365 347.519052) rotate(-75) scale(0.1 -0.1)">
       <defs>
        <path id="DejaVuSans-41" d="M 2188 4044 
L 1331 1722 
L 3047 1722 
L 2188 4044 
z
M 1831 4666 
L 2547 4666 
L 4325 0 
L 3669 0 
L 3244 1197 
L 1141 1197 
L 716 0 
L 50 0 
L 1831 4666 
z
" transform="scale(0.015625)"/>
        <path id="DejaVuSans-75" d="M 544 1381 
L 544 3500 
L 1119 3500 
L 1119 1403 
Q 1119 906 1312 657 
Q 1506 409 1894 409 
Q 2359 409 2629 706 
Q 2900 1003 2900 1516 
L 2900 3500 
L 3475 3500 
L 3475 0 
L 2900 0 
L 2900 538 
Q 2691 219 2414 64 
Q 2138 -91 1772 -91 
Q 1169 -91 856 284 
Q 544 659 544 1381 
z
M 1991 3584 
L 1991 3584 
z
" transform="scale(0.015625)"/>
        <path id="DejaVuSans-67" d="M 2906 1791 
Q 2906 2416 2648 2759 
Q 2391 3103 1925 3103 
Q 1463 3103 1205 2759 
Q 947 2416 947 1791 
Q 947 1169 1205 825 
Q 1463 481 1925 481 
Q 2391 481 2648 825 
Q 2906 1169 2906 1791 
z
M 3481 434 
Q 3481 -459 3084 -895 
Q 2688 -1331 1869 -1331 
Q 1566 -1331 1297 -1286 
Q 1028 -1241 775 -1147 
L 775 -588 
Q 1028 -725 1275 -790 
Q 1522 -856 1778 -856 
Q 2344 -856 2625 -561 
Q 2906 -266 2906 331 
L 2906 616 
Q 2728 306 2450 153 
Q 2172 0 1784 0 
Q 1141 0 747 490 
Q 353 981 353 1791 
Q 353 2603 747 3093 
Q 1141 3584 1784 3584 
Q 2172 3584 2450 3431 
Q 2728 3278 2906 2969 
L 2906 3500 
L 3481 3500 
L 3481 434 
z
" transform="scale(0.015625)"/>
       </defs>
       <use xlink:href="#DejaVuSans-41"/>
       <use xlink:href="#DejaVuSans-75" transform="translate(68.408203 0)"/>
       <use xlink:href="#DejaVuSans-67" transform="translate(131.787109 0)"/>
       <use xlink:href="#DejaVuSans-20" transform="translate(195.263672 0)"/>
       <use xlink:href="#DejaVuSans-32" transform="translate(227.050781 0)"/>
       <use xlink:href="#DejaVuSans-30" transform="translate(290.673828 0)"/>
       <use xlink:href="#DejaVuSans-32" transform="translate(354.296875 0)"/>
       <use xlink:href="#DejaVuSans-30" transform="translate(417.919922 0)"/>
      </g>
     </g>
    </g>
    <g id="xtick_5">
     <g id="line2d_5">
      <g>
       <use xlink:href="#mfafcd7f236" x="180.546042" y="292.038576" style="stroke: #000000; stroke-width: 0.8"/>
      </g>
     </g>
     <g id="text_5">
      <!-- Nov 2020 -->
      <g transform="translate(176.980729 347.511506) rotate(-75) scale(0.1 -0.1)">
       <use xlink:href="#DejaVuSans-4e"/>
       <use xlink:href="#DejaVuSans-6f" transform="translate(74.804688 0)"/>
       <use xlink:href="#DejaVuSans-76" transform="translate(135.986328 0)"/>
       <use xlink:href="#DejaVuSans-20" transform="translate(195.166016 0)"/>
       <use xlink:href="#DejaVuSans-32" transform="translate(226.953125 0)"/>
       <use xlink:href="#DejaVuSans-30" transform="translate(290.576172 0)"/>
       <use xlink:href="#DejaVuSans-32" transform="translate(354.199219 0)"/>
       <use xlink:href="#DejaVuSans-30" transform="translate(417.822266 0)"/>
      </g>
     </g>
    </g>
    <g id="xtick_6">
     <g id="line2d_6">
      <g>
       <use xlink:href="#mfafcd7f236" x="215.530395" y="292.038576" style="stroke: #000000; stroke-width: 0.8"/>
      </g>
     </g>
     <g id="text_6">
      <!-- Feb 2021 -->
      <g transform="translate(212.200042 345.757747) rotate(-75) scale(0.1 -0.1)">
       <use xlink:href="#DejaVuSans-46"/>
       <use xlink:href="#DejaVuSans-65" transform="translate(52.019531 0)"/>
       <use xlink:href="#DejaVuSans-62" transform="translate(113.542969 0)"/>
       <use xlink:href="#DejaVuSans-20" transform="translate(177.019531 0)"/>
       <use xlink:href="#DejaVuSans-32" transform="translate(208.806641 0)"/>
       <use xlink:href="#DejaVuSans-30" transform="translate(272.429688 0)"/>
       <use xlink:href="#DejaVuSans-32" transform="translate(336.052734 0)"/>
       <use xlink:href="#DejaVuSans-31" transform="translate(399.675781 0)"/>
      </g>
     </g>
    </g>
    <g id="xtick_7">
     <g id="line2d_7">
      <g>
       <use xlink:href="#mfafcd7f236" x="249.373955" y="292.038576" style="stroke: #000000; stroke-width: 0.8"/>
      </g>
     </g>
     <g id="text_7">
      <!-- May 2021 -->
      <g transform="translate(245.659012 348.628358) rotate(-75) scale(0.1 -0.1)">
       <use xlink:href="#DejaVuSans-4d"/>
       <use xlink:href="#DejaVuSans-61" transform="translate(86.279297 0)"/>
       <use xlink:href="#DejaVuSans-79" transform="translate(147.558594 0)"/>
       <use xlink:href="#DejaVuSans-20" transform="translate(206.738281 0)"/>
       <use xlink:href="#DejaVuSans-32" transform="translate(238.525391 0)"/>
       <use xlink:href="#DejaVuSans-30" transform="translate(302.148438 0)"/>
       <use xlink:href="#DejaVuSans-32" transform="translate(365.771484 0)"/>
       <use xlink:href="#DejaVuSans-31" transform="translate(429.394531 0)"/>
      </g>
     </g>
    </g>
    <g id="xtick_8">
     <g id="line2d_8">
      <g>
       <use xlink:href="#mfafcd7f236" x="284.358308" y="292.038576" style="stroke: #000000; stroke-width: 0.8"/>
      </g>
     </g>
     <g id="text_8">
      <!-- Aug 2021 -->
      <g transform="translate(280.791984 347.519052) rotate(-75) scale(0.1 -0.1)">
       <use xlink:href="#DejaVuSans-41"/>
       <use xlink:href="#DejaVuSans-75" transform="translate(68.408203 0)"/>
       <use xlink:href="#DejaVuSans-67" transform="translate(131.787109 0)"/>
       <use xlink:href="#DejaVuSans-20" transform="translate(195.263672 0)"/>
       <use xlink:href="#DejaVuSans-32" transform="translate(227.050781 0)"/>
       <use xlink:href="#DejaVuSans-30" transform="translate(290.673828 0)"/>
       <use xlink:href="#DejaVuSans-32" transform="translate(354.296875 0)"/>
       <use xlink:href="#DejaVuSans-31" transform="translate(417.919922 0)"/>
      </g>
     </g>
    </g>
    <g id="xtick_9">
     <g id="line2d_9">
      <g>
       <use xlink:href="#mfafcd7f236" x="319.342661" y="292.038576" style="stroke: #000000; stroke-width: 0.8"/>
      </g>
     </g>
     <g id="text_9">
      <!-- Nov 2021 -->
      <g transform="translate(315.777349 347.511506) rotate(-75) scale(0.1 -0.1)">
       <use xlink:href="#DejaVuSans-4e"/>
       <use xlink:href="#DejaVuSans-6f" transform="translate(74.804688 0)"/>
       <use xlink:href="#DejaVuSans-76" transform="translate(135.986328 0)"/>
       <use xlink:href="#DejaVuSans-20" transform="translate(195.166016 0)"/>
       <use xlink:href="#DejaVuSans-32" transform="translate(226.953125 0)"/>
       <use xlink:href="#DejaVuSans-30" transform="translate(290.576172 0)"/>
       <use xlink:href="#DejaVuSans-32" transform="translate(354.199219 0)"/>
       <use xlink:href="#DejaVuSans-31" transform="translate(417.822266 0)"/>
      </g>
     </g>
    </g>
    <g id="xtick_10">
     <g id="line2d_10">
      <g>
       <use xlink:href="#mfafcd7f236" x="354.327015" y="292.038576" style="stroke: #000000; stroke-width: 0.8"/>
      </g>
     </g>
     <g id="text_10">
      <!-- Feb 2022 -->
      <g transform="translate(350.996661 345.757747) rotate(-75) scale(0.1 -0.1)">
       <use xlink:href="#DejaVuSans-46"/>
       <use xlink:href="#DejaVuSans-65" transform="translate(52.019531 0)"/>
       <use xlink:href="#DejaVuSans-62" transform="translate(113.542969 0)"/>
       <use xlink:href="#DejaVuSans-20" transform="translate(177.019531 0)"/>
       <use xlink:href="#DejaVuSans-32" transform="translate(208.806641 0)"/>
       <use xlink:href="#DejaVuSans-30" transform="translate(272.429688 0)"/>
       <use xlink:href="#DejaVuSans-32" transform="translate(336.052734 0)"/>
       <use xlink:href="#DejaVuSans-32" transform="translate(399.675781 0)"/>
      </g>
     </g>
    </g>
    <g id="xtick_11">
     <g id="line2d_11">
      <g>
       <use xlink:href="#mfafcd7f236" x="388.170574" y="292.038576" style="stroke: #000000; stroke-width: 0.8"/>
      </g>
     </g>
     <g id="text_11">
      <!-- May 2022 -->
      <g transform="translate(384.455632 348.628358) rotate(-75) scale(0.1 -0.1)">
       <use xlink:href="#DejaVuSans-4d"/>
       <use xlink:href="#DejaVuSans-61" transform="translate(86.279297 0)"/>
       <use xlink:href="#DejaVuSans-79" transform="translate(147.558594 0)"/>
       <use xlink:href="#DejaVuSans-20" transform="translate(206.738281 0)"/>
       <use xlink:href="#DejaVuSans-32" transform="translate(238.525391 0)"/>
       <use xlink:href="#DejaVuSans-30" transform="translate(302.148438 0)"/>
       <use xlink:href="#DejaVuSans-32" transform="translate(365.771484 0)"/>
       <use xlink:href="#DejaVuSans-32" transform="translate(429.394531 0)"/>
      </g>
     </g>
    </g>
    <g id="xtick_12">
     <g id="line2d_12">
      <g>
       <use xlink:href="#mfafcd7f236" x="423.154928" y="292.038576" style="stroke: #000000; stroke-width: 0.8"/>
      </g>
     </g>
     <g id="text_12">
      <!-- Aug 2022 -->
      <g transform="translate(419.588604 347.519052) rotate(-75) scale(0.1 -0.1)">
       <use xlink:href="#DejaVuSans-41"/>
       <use xlink:href="#DejaVuSans-75" transform="translate(68.408203 0)"/>
       <use xlink:href="#DejaVuSans-67" transform="translate(131.787109 0)"/>
       <use xlink:href="#DejaVuSans-20" transform="translate(195.263672 0)"/>
       <use xlink:href="#DejaVuSans-32" transform="translate(227.050781 0)"/>
       <use xlink:href="#DejaVuSans-30" transform="translate(290.673828 0)"/>
       <use xlink:href="#DejaVuSans-32" transform="translate(354.296875 0)"/>
       <use xlink:href="#DejaVuSans-32" transform="translate(417.919922 0)"/>
      </g>
     </g>
    </g>
    <g id="xtick_13">
     <g id="line2d_13">
      <g>
       <use xlink:href="#mfafcd7f236" x="458.139281" y="292.038576" style="stroke: #000000; stroke-width: 0.8"/>
      </g>
     </g>
     <g id="text_13">
      <!-- Nov 2022 -->
      <g transform="translate(454.573969 347.511506) rotate(-75) scale(0.1 -0.1)">
       <use xlink:href="#DejaVuSans-4e"/>
       <use xlink:href="#DejaVuSans-6f" transform="translate(74.804688 0)"/>
       <use xlink:href="#DejaVuSans-76" transform="translate(135.986328 0)"/>
       <use xlink:href="#DejaVuSans-20" transform="translate(195.166016 0)"/>
       <use xlink:href="#DejaVuSans-32" transform="translate(226.953125 0)"/>
       <use xlink:href="#DejaVuSans-30" transform="translate(290.576172 0)"/>
       <use xlink:href="#DejaVuSans-32" transform="translate(354.199219 0)"/>
       <use xlink:href="#DejaVuSans-32" transform="translate(417.822266 0)"/>
      </g>
     </g>
    </g>
    <g id="xtick_14">
     <g id="line2d_14">
      <g>
       <use xlink:href="#mfafcd7f236" x="493.123634" y="292.038576" style="stroke: #000000; stroke-width: 0.8"/>
      </g>
     </g>
     <g id="text_14">
      <!-- Feb 2023 -->
      <g transform="translate(489.793281 345.757747) rotate(-75) scale(0.1 -0.1)">
       <defs>
        <path id="DejaVuSans-33" d="M 2597 2516 
Q 3050 2419 3304 2112 
Q 3559 1806 3559 1356 
Q 3559 666 3084 287 
Q 2609 -91 1734 -91 
Q 1441 -91 1130 -33 
Q 819 25 488 141 
L 488 750 
Q 750 597 1062 519 
Q 1375 441 1716 441 
Q 2309 441 2620 675 
Q 2931 909 2931 1356 
Q 2931 1769 2642 2001 
Q 2353 2234 1838 2234 
L 1294 2234 
L 1294 2753 
L 1863 2753 
Q 2328 2753 2575 2939 
Q 2822 3125 2822 3475 
Q 2822 3834 2567 4026 
Q 2313 4219 1838 4219 
Q 1578 4219 1281 4162 
Q 984 4106 628 3988 
L 628 4550 
Q 988 4650 1302 4700 
Q 1616 4750 1894 4750 
Q 2613 4750 3031 4423 
Q 3450 4097 3450 3541 
Q 3450 3153 3228 2886 
Q 3006 2619 2597 2516 
z
" transform="scale(0.015625)"/>
       </defs>
       <use xlink:href="#DejaVuSans-46"/>
       <use xlink:href="#DejaVuSans-65" transform="translate(52.019531 0)"/>
       <use xlink:href="#DejaVuSans-62" transform="translate(113.542969 0)"/>
       <use xlink:href="#DejaVuSans-20" transform="translate(177.019531 0)"/>
       <use xlink:href="#DejaVuSans-32" transform="translate(208.806641 0)"/>
       <use xlink:href="#DejaVuSans-30" transform="translate(272.429688 0)"/>
       <use xlink:href="#DejaVuSans-32" transform="translate(336.052734 0)"/>
       <use xlink:href="#DejaVuSans-33" transform="translate(399.675781 0)"/>
      </g>
     </g>
    </g>
    <g id="xtick_15">
     <g id="line2d_15">
      <g>
       <use xlink:href="#mfafcd7f236" x="526.967194" y="292.038576" style="stroke: #000000; stroke-width: 0.8"/>
      </g>
     </g>
     <g id="text_15">
      <!-- May 2023 -->
      <g transform="translate(523.252252 348.628358) rotate(-75) scale(0.1 -0.1)">
       <use xlink:href="#DejaVuSans-4d"/>
       <use xlink:href="#DejaVuSans-61" transform="translate(86.279297 0)"/>
       <use xlink:href="#DejaVuSans-79" transform="translate(147.558594 0)"/>
       <use xlink:href="#DejaVuSans-20" transform="translate(206.738281 0)"/>
       <use xlink:href="#DejaVuSans-32" transform="translate(238.525391 0)"/>
       <use xlink:href="#DejaVuSans-30" transform="translate(302.148438 0)"/>
       <use xlink:href="#DejaVuSans-32" transform="translate(365.771484 0)"/>
       <use xlink:href="#DejaVuSans-33" transform="translate(429.394531 0)"/>
      </g>
     </g>
    </g>
    <g id="xtick_16">
     <g id="line2d_16">
      <g>
       <use xlink:href="#mfafcd7f236" x="561.951547" y="292.038576" style="stroke: #000000; stroke-width: 0.8"/>
      </g>
     </g>
     <g id="text_16">
      <!-- Aug 2023 -->
      <g transform="translate(558.385224 347.519052) rotate(-75) scale(0.1 -0.1)">
       <use xlink:href="#DejaVuSans-41"/>
       <use xlink:href="#DejaVuSans-75" transform="translate(68.408203 0)"/>
       <use xlink:href="#DejaVuSans-67" transform="translate(131.787109 0)"/>
       <use xlink:href="#DejaVuSans-20" transform="translate(195.263672 0)"/>
       <use xlink:href="#DejaVuSans-32" transform="translate(227.050781 0)"/>
       <use xlink:href="#DejaVuSans-30" transform="translate(290.673828 0)"/>
       <use xlink:href="#DejaVuSans-32" transform="translate(354.296875 0)"/>
       <use xlink:href="#DejaVuSans-33" transform="translate(417.919922 0)"/>
      </g>
     </g>
    </g>
    <g id="xtick_17">
     <g id="line2d_17">
      <g>
       <use xlink:href="#mfafcd7f236" x="596.935901" y="292.038576" style="stroke: #000000; stroke-width: 0.8"/>
      </g>
     </g>
     <g id="text_17">
      <!-- Nov 2023 -->
      <g transform="translate(593.370588 347.511506) rotate(-75) scale(0.1 -0.1)">
       <use xlink:href="#DejaVuSans-4e"/>
       <use xlink:href="#DejaVuSans-6f" transform="translate(74.804688 0)"/>
       <use xlink:href="#DejaVuSans-76" transform="translate(135.986328 0)"/>
       <use xlink:href="#DejaVuSans-20" transform="translate(195.166016 0)"/>
       <use xlink:href="#DejaVuSans-32" transform="translate(226.953125 0)"/>
       <use xlink:href="#DejaVuSans-30" transform="translate(290.576172 0)"/>
       <use xlink:href="#DejaVuSans-32" transform="translate(354.199219 0)"/>
       <use xlink:href="#DejaVuSans-33" transform="translate(417.822266 0)"/>
      </g>
     </g>
    </g>
    <g id="xtick_18">
     <g id="line2d_18">
      <g>
       <use xlink:href="#mfafcd7f236" x="631.920254" y="292.038576" style="stroke: #000000; stroke-width: 0.8"/>
      </g>
     </g>
     <g id="text_18">
      <!-- Feb 2024 -->
      <g transform="translate(628.589901 345.757747) rotate(-75) scale(0.1 -0.1)">
       <defs>
        <path id="DejaVuSans-34" d="M 2419 4116 
L 825 1625 
L 2419 1625 
L 2419 4116 
z
M 2253 4666 
L 3047 4666 
L 3047 1625 
L 3713 1625 
L 3713 1100 
L 3047 1100 
L 3047 0 
L 2419 0 
L 2419 1100 
L 313 1100 
L 313 1709 
L 2253 4666 
z
" transform="scale(0.015625)"/>
       </defs>
       <use xlink:href="#DejaVuSans-46"/>
       <use xlink:href="#DejaVuSans-65" transform="translate(52.019531 0)"/>
       <use xlink:href="#DejaVuSans-62" transform="translate(113.542969 0)"/>
       <use xlink:href="#DejaVuSans-20" transform="translate(177.019531 0)"/>
       <use xlink:href="#DejaVuSans-32" transform="translate(208.806641 0)"/>
       <use xlink:href="#DejaVuSans-30" transform="translate(272.429688 0)"/>
       <use xlink:href="#DejaVuSans-32" transform="translate(336.052734 0)"/>
       <use xlink:href="#DejaVuSans-34" transform="translate(399.675781 0)"/>
      </g>
     </g>
    </g>
   </g>
   <g id="matplotlib.axis_2">
    <g id="ytick_1">
     <g id="line2d_19">
      <defs>
       <path id="mec49b5aea8" d="M 0 0 
L -3.5 0 
" style="stroke: #000000; stroke-width: 0.8"/>
      </defs>
      <g>
       <use xlink:href="#mec49b5aea8" x="38.27" y="292.038576" style="stroke: #000000; stroke-width: 0.8"/>
      </g>
     </g>
     <g id="text_19">
      <!-- 0 -->
      <g transform="translate(24.9075 295.837794) scale(0.1 -0.1)">
       <use xlink:href="#DejaVuSans-30"/>
      </g>
     </g>
    </g>
    <g id="ytick_2">
     <g id="line2d_20">
      <g>
       <use xlink:href="#mec49b5aea8" x="38.27" y="244.057415" style="stroke: #000000; stroke-width: 0.8"/>
      </g>
     </g>
     <g id="text_20">
      <!-- 1 -->
      <g transform="translate(24.9075 247.856634) scale(0.1 -0.1)">
       <use xlink:href="#DejaVuSans-31"/>
      </g>
     </g>
    </g>
    <g id="ytick_3">
     <g id="line2d_21">
      <g>
       <use xlink:href="#mec49b5aea8" x="38.27" y="196.076254" style="stroke: #000000; stroke-width: 0.8"/>
      </g>
     </g>
     <g id="text_21">
      <!-- 2 -->
      <g transform="translate(24.9075 199.875473) scale(0.1 -0.1)">
       <use xlink:href="#DejaVuSans-32"/>
      </g>
     </g>
    </g>
    <g id="ytick_4">
     <g id="line2d_22">
      <g>
       <use xlink:href="#mec49b5aea8" x="38.27" y="148.095094" style="stroke: #000000; stroke-width: 0.8"/>
      </g>
     </g>
     <g id="text_22">
      <!-- 3 -->
      <g transform="translate(24.9075 151.894313) scale(0.1 -0.1)">
       <use xlink:href="#DejaVuSans-33"/>
      </g>
     </g>
    </g>
    <g id="ytick_5">
     <g id="line2d_23">
      <g>
       <use xlink:href="#mec49b5aea8" x="38.27" y="100.113933" style="stroke: #000000; stroke-width: 0.8"/>
      </g>
     </g>
     <g id="text_23">
      <!-- 4 -->
      <g transform="translate(24.9075 103.913152) scale(0.1 -0.1)">
       <use xlink:href="#DejaVuSans-34"/>
      </g>
     </g>
    </g>
    <g id="ytick_6">
     <g id="line2d_24">
      <g>
       <use xlink:href="#mec49b5aea8" x="38.27" y="52.132773" style="stroke: #000000; stroke-width: 0.8"/>
      </g>
     </g>
     <g id="text_24">
      <!-- 5 -->
      <g transform="translate(24.9075 55.931991) scale(0.1 -0.1)">
       <defs>
        <path id="DejaVuSans-35" d="M 691 4666 
L 3169 4666 
L 3169 4134 
L 1269 4134 
L 1269 2991 
Q 1406 3038 1543 3061 
Q 1681 3084 1819 3084 
Q 2600 3084 3056 2656 
Q 3513 2228 3513 1497 
Q 3513 744 3044 326 
Q 2575 -91 1722 -91 
Q 1428 -91 1123 -41 
Q 819 9 494 109 
L 494 744 
Q 775 591 1075 516 
Q 1375 441 1709 441 
Q 2250 441 2565 725 
Q 2881 1009 2881 1497 
Q 2881 1984 2565 2268 
Q 2250 2553 1709 2553 
Q 1456 2553 1204 2497 
Q 953 2441 691 2322 
L 691 4666 
z
" transform="scale(0.015625)"/>
       </defs>
       <use xlink:href="#DejaVuSans-35"/>
      </g>
     </g>
    </g>
    <g id="text_25">
     <!-- Confirmed cases -->
     <g transform="translate(18.827813 201.105382) rotate(-90) scale(0.1 -0.1)">
      <defs>
       <path id="DejaVuSans-43" d="M 4122 4306 
L 4122 3641 
Q 3803 3938 3442 4084 
Q 3081 4231 2675 4231 
Q 1875 4231 1450 3742 
Q 1025 3253 1025 2328 
Q 1025 1406 1450 917 
Q 1875 428 2675 428 
Q 3081 428 3442 575 
Q 3803 722 4122 1019 
L 4122 359 
Q 3791 134 3420 21 
Q 3050 -91 2638 -91 
Q 1578 -91 968 557 
Q 359 1206 359 2328 
Q 359 3453 968 4101 
Q 1578 4750 2638 4750 
Q 3056 4750 3426 4639 
Q 3797 4528 4122 4306 
z
" transform="scale(0.015625)"/>
       <path id="DejaVuSans-6e" d="M 3513 2113 
L 3513 0 
L 2938 0 
L 2938 2094 
Q 2938 2591 2744 2837 
Q 2550 3084 2163 3084 
Q 1697 3084 1428 2787 
Q 1159 2491 1159 1978 
L 1159 0 
L 581 0 
L 581 3500 
L 1159 3500 
L 1159 2956 
Q 1366 3272 1645 3428 
Q 1925 3584 2291 3584 
Q 2894 3584 3203 3211 
Q 3513 2838 3513 2113 
z
" transform="scale(0.015625)"/>
       <path id="DejaVuSans-66" d="M 2375 4863 
L 2375 4384 
L 1825 4384 
Q 1516 4384 1395 4259 
Q 1275 4134 1275 3809 
L 1275 3500 
L 2222 3500 
L 2222 3053 
L 1275 3053 
L 1275 0 
L 697 0 
L 697 3053 
L 147 3053 
L 147 3500 
L 697 3500 
L 697 3744 
Q 697 4328 969 4595 
Q 1241 4863 1831 4863 
L 2375 4863 
z
" transform="scale(0.015625)"/>
       <path id="DejaVuSans-69" d="M 603 3500 
L 1178 3500 
L 1178 0 
L 603 0 
L 603 3500 
z
M 603 4863 
L 1178 4863 
L 1178 4134 
L 603 4134 
L 603 4863 
z
" transform="scale(0.015625)"/>
       <path id="DejaVuSans-72" d="M 2631 2963 
Q 2534 3019 2420 3045 
Q 2306 3072 2169 3072 
Q 1681 3072 1420 2755 
Q 1159 2438 1159 1844 
L 1159 0 
L 581 0 
L 581 3500 
L 1159 3500 
L 1159 2956 
Q 1341 3275 1631 3429 
Q 1922 3584 2338 3584 
Q 2397 3584 2469 3576 
Q 2541 3569 2628 3553 
L 2631 2963 
z
" transform="scale(0.015625)"/>
       <path id="DejaVuSans-6d" d="M 3328 2828 
Q 3544 3216 3844 3400 
Q 4144 3584 4550 3584 
Q 5097 3584 5394 3201 
Q 5691 2819 5691 2113 
L 5691 0 
L 5113 0 
L 5113 2094 
Q 5113 2597 4934 2840 
Q 4756 3084 4391 3084 
Q 3944 3084 3684 2787 
Q 3425 2491 3425 1978 
L 3425 0 
L 2847 0 
L 2847 2094 
Q 2847 2600 2669 2842 
Q 2491 3084 2119 3084 
Q 1678 3084 1418 2786 
Q 1159 2488 1159 1978 
L 1159 0 
L 581 0 
L 581 3500 
L 1159 3500 
L 1159 2956 
Q 1356 3278 1631 3431 
Q 1906 3584 2284 3584 
Q 2666 3584 2933 3390 
Q 3200 3197 3328 2828 
z
" transform="scale(0.015625)"/>
       <path id="DejaVuSans-64" d="M 2906 2969 
L 2906 4863 
L 3481 4863 
L 3481 0 
L 2906 0 
L 2906 525 
Q 2725 213 2448 61 
Q 2172 -91 1784 -91 
Q 1150 -91 751 415 
Q 353 922 353 1747 
Q 353 2572 751 3078 
Q 1150 3584 1784 3584 
Q 2172 3584 2448 3432 
Q 2725 3281 2906 2969 
z
M 947 1747 
Q 947 1113 1208 752 
Q 1469 391 1925 391 
Q 2381 391 2643 752 
Q 2906 1113 2906 1747 
Q 2906 2381 2643 2742 
Q 2381 3103 1925 3103 
Q 1469 3103 1208 2742 
Q 947 2381 947 1747 
z
" transform="scale(0.015625)"/>
       <path id="DejaVuSans-63" d="M 3122 3366 
L 3122 2828 
Q 2878 2963 2633 3030 
Q 2388 3097 2138 3097 
Q 1578 3097 1268 2742 
Q 959 2388 959 1747 
Q 959 1106 1268 751 
Q 1578 397 2138 397 
Q 2388 397 2633 464 
Q 2878 531 3122 666 
L 3122 134 
Q 2881 22 2623 -34 
Q 2366 -91 2075 -91 
Q 1284 -91 818 406 
Q 353 903 353 1747 
Q 353 2603 823 3093 
Q 1294 3584 2113 3584 
Q 2378 3584 2631 3529 
Q 2884 3475 3122 3366 
z
" transform="scale(0.015625)"/>
       <path id="DejaVuSans-73" d="M 2834 3397 
L 2834 2853 
Q 2591 2978 2328 3040 
Q 2066 3103 1784 3103 
Q 1356 3103 1142 2972 
Q 928 2841 928 2578 
Q 928 2378 1081 2264 
Q 1234 2150 1697 2047 
L 1894 2003 
Q 2506 1872 2764 1633 
Q 3022 1394 3022 966 
Q 3022 478 2636 193 
Q 2250 -91 1575 -91 
Q 1294 -91 989 -36 
Q 684 19 347 128 
L 347 722 
Q 666 556 975 473 
Q 1284 391 1588 391 
Q 1994 391 2212 530 
Q 2431 669 2431 922 
Q 2431 1156 2273 1281 
Q 2116 1406 1581 1522 
L 1381 1569 
Q 847 1681 609 1914 
Q 372 2147 372 2553 
Q 372 3047 722 3315 
Q 1072 3584 1716 3584 
Q 2034 3584 2315 3537 
Q 2597 3491 2834 3397 
z
" transform="scale(0.015625)"/>
      </defs>
      <use xlink:href="#DejaVuSans-43"/>
      <use xlink:href="#DejaVuSans-6f" transform="translate(69.824219 0)"/>
      <use xlink:href="#DejaVuSans-6e" transform="translate(131.005859 0)"/>
      <use xlink:href="#DejaVuSans-66" transform="translate(194.384766 0)"/>
      <use xlink:href="#DejaVuSans-69" transform="translate(229.589844 0)"/>
      <use xlink:href="#DejaVuSans-72" transform="translate(257.373047 0)"/>
      <use xlink:href="#DejaVuSans-6d" transform="translate(296.736328 0)"/>
      <use xlink:href="#DejaVuSans-65" transform="translate(394.148438 0)"/>
      <use xlink:href="#DejaVuSans-64" transform="translate(455.671875 0)"/>
      <use xlink:href="#DejaVuSans-20" transform="translate(519.148438 0)"/>
      <use xlink:href="#DejaVuSans-63" transform="translate(550.935547 0)"/>
      <use xlink:href="#DejaVuSans-61" transform="translate(605.916016 0)"/>
      <use xlink:href="#DejaVuSans-73" transform="translate(667.195312 0)"/>
      <use xlink:href="#DejaVuSans-65" transform="translate(719.294922 0)"/>
      <use xlink:href="#DejaVuSans-73" transform="translate(780.818359 0)"/>
     </g>
    </g>
    <g id="text_26">
     <!-- 1e6 -->
     <g transform="translate(38.27 23.88) scale(0.1 -0.1)">
      <defs>
       <path id="DejaVuSans-36" d="M 2113 2584 
Q 1688 2584 1439 2293 
Q 1191 2003 1191 1497 
Q 1191 994 1439 701 
Q 1688 409 2113 409 
Q 2538 409 2786 701 
Q 3034 994 3034 1497 
Q 3034 2003 2786 2293 
Q 2538 2584 2113 2584 
z
M 3366 4563 
L 3366 3988 
Q 3128 4100 2886 4159 
Q 2644 4219 2406 4219 
Q 1781 4219 1451 3797 
Q 1122 3375 1075 2522 
Q 1259 2794 1537 2939 
Q 1816 3084 2150 3084 
Q 2853 3084 3261 2657 
Q 3669 2231 3669 1497 
Q 3669 778 3244 343 
Q 2819 -91 2113 -91 
Q 1303 -91 875 529 
Q 447 1150 447 2328 
Q 447 3434 972 4092 
Q 1497 4750 2381 4750 
Q 2619 4750 2861 4703 
Q 3103 4656 3366 4563 
z
" transform="scale(0.015625)"/>
      </defs>
      <use xlink:href="#DejaVuSans-31"/>
      <use xlink:href="#DejaVuSans-65" transform="translate(63.623047 0)"/>
      <use xlink:href="#DejaVuSans-36" transform="translate(125.146484 0)"/>
     </g>
    </g>
   </g>
   <g id="patch_3">
    <path d="M 38.27 292.038576 
L 38.27 26.88 
" style="fill: none; stroke: #000000; stroke-width: 0.8; stroke-linejoin: miter; stroke-linecap: square"/>
   </g>
   <g id="patch_4">
    <path d="M 650.23 292.038576 
L 650.23 26.88 
" style="fill: none; stroke: #000000; stroke-width: 0.8; stroke-linejoin: miter; stroke-linecap: square"/>
   </g>
   <g id="patch_5">
    <path d="M 38.27 292.038576 
L 650.23 292.038576 
" style="fill: none; stroke: #000000; stroke-width: 0.8; stroke-linejoin: miter; stroke-linecap: square"/>
   </g>
   <g id="patch_6">
    <path d="M 38.27 26.88 
L 650.23 26.88 
" style="fill: none; stroke: #000000; stroke-width: 0.8; stroke-linejoin: miter; stroke-linecap: square"/>
   </g>
   <g id="text_27">
    <!-- Cumulative Covid-19 cases and deaths: Ukraine -->
    <g transform="translate(199.925625 20.88) scale(0.12 -0.12)">
     <defs>
      <path id="DejaVuSans-6c" d="M 603 4863 
L 1178 4863 
L 1178 0 
L 603 0 
L 603 4863 
z
" transform="scale(0.015625)"/>
      <path id="DejaVuSans-74" d="M 1172 4494 
L 1172 3500 
L 2356 3500 
L 2356 3053 
L 1172 3053 
L 1172 1153 
Q 1172 725 1289 603 
Q 1406 481 1766 481 
L 2356 481 
L 2356 0 
L 1766 0 
Q 1100 0 847 248 
Q 594 497 594 1153 
L 594 3053 
L 172 3053 
L 172 3500 
L 594 3500 
L 594 4494 
L 1172 4494 
z
" transform="scale(0.015625)"/>
      <path id="DejaVuSans-2d" d="M 313 2009 
L 1997 2009 
L 1997 1497 
L 313 1497 
L 313 2009 
z
" transform="scale(0.015625)"/>
      <path id="DejaVuSans-68" d="M 3513 2113 
L 3513 0 
L 2938 0 
L 2938 2094 
Q 2938 2591 2744 2837 
Q 2550 3084 2163 3084 
Q 1697 3084 1428 2787 
Q 1159 2491 1159 1978 
L 1159 0 
L 581 0 
L 581 4863 
L 1159 4863 
L 1159 2956 
Q 1366 3272 1645 3428 
Q 1925 3584 2291 3584 
Q 2894 3584 3203 3211 
Q 3513 2838 3513 2113 
z
" transform="scale(0.015625)"/>
      <path id="DejaVuSans-3a" d="M 750 794 
L 1409 794 
L 1409 0 
L 750 0 
L 750 794 
z
M 750 3309 
L 1409 3309 
L 1409 2516 
L 750 2516 
L 750 3309 
z
" transform="scale(0.015625)"/>
      <path id="DejaVuSans-55" d="M 556 4666 
L 1191 4666 
L 1191 1831 
Q 1191 1081 1462 751 
Q 1734 422 2344 422 
Q 2950 422 3222 751 
Q 3494 1081 3494 1831 
L 3494 4666 
L 4128 4666 
L 4128 1753 
Q 4128 841 3676 375 
Q 3225 -91 2344 -91 
Q 1459 -91 1007 375 
Q 556 841 556 1753 
L 556 4666 
z
" transform="scale(0.015625)"/>
      <path id="DejaVuSans-6b" d="M 581 4863 
L 1159 4863 
L 1159 1991 
L 2875 3500 
L 3609 3500 
L 1753 1863 
L 3688 0 
L 2938 0 
L 1159 1709 
L 1159 0 
L 581 0 
L 581 4863 
z
" transform="scale(0.015625)"/>
     </defs>
     <use xlink:href="#DejaVuSans-43"/>
     <use xlink:href="#DejaVuSans-75" transform="translate(69.824219 0)"/>
     <use xlink:href="#DejaVuSans-6d" transform="translate(133.203125 0)"/>
     <use xlink:href="#DejaVuSans-75" transform="translate(230.615234 0)"/>
     <use xlink:href="#DejaVuSans-6c" transform="translate(293.994141 0)"/>
     <use xlink:href="#DejaVuSans-61" transform="translate(321.777344 0)"/>
     <use xlink:href="#DejaVuSans-74" transform="translate(383.056641 0)"/>
     <use xlink:href="#DejaVuSans-69" transform="translate(422.265625 0)"/>
     <use xlink:href="#DejaVuSans-76" transform="translate(450.048828 0)"/>
     <use xlink:href="#DejaVuSans-65" transform="translate(509.228516 0)"/>
     <use xlink:href="#DejaVuSans-20" transform="translate(570.751953 0)"/>
     <use xlink:href="#DejaVuSans-43" transform="translate(602.539062 0)"/>
     <use xlink:href="#DejaVuSans-6f" transform="translate(672.363281 0)"/>
     <use xlink:href="#DejaVuSans-76" transform="translate(733.544922 0)"/>
     <use xlink:href="#DejaVuSans-69" transform="translate(792.724609 0)"/>
     <use xlink:href="#DejaVuSans-64" transform="translate(820.507812 0)"/>
     <use xlink:href="#DejaVuSans-2d" transform="translate(883.984375 0)"/>
     <use xlink:href="#DejaVuSans-31" transform="translate(920.068359 0)"/>
     <use xlink:href="#DejaVuSans-39" transform="translate(983.691406 0)"/>
     <use xlink:href="#DejaVuSans-20" transform="translate(1047.314453 0)"/>
     <use xlink:href="#DejaVuSans-63" transform="translate(1079.101562 0)"/>
     <use xlink:href="#DejaVuSans-61" transform="translate(1134.082031 0)"/>
     <use xlink:href="#DejaVuSans-73" transform="translate(1195.361328 0)"/>
     <use xlink:href="#DejaVuSans-65" transform="translate(1247.460938 0)"/>
     <use xlink:href="#DejaVuSans-73" transform="translate(1308.984375 0)"/>
     <use xlink:href="#DejaVuSans-20" transform="translate(1361.083984 0)"/>
     <use xlink:href="#DejaVuSans-61" transform="translate(1392.871094 0)"/>
     <use xlink:href="#DejaVuSans-6e" transform="translate(1454.150391 0)"/>
     <use xlink:href="#DejaVuSans-64" transform="translate(1517.529297 0)"/>
     <use xlink:href="#DejaVuSans-20" transform="translate(1581.005859 0)"/>
     <use xlink:href="#DejaVuSans-64" transform="translate(1612.792969 0)"/>
     <use xlink:href="#DejaVuSans-65" transform="translate(1676.269531 0)"/>
     <use xlink:href="#DejaVuSans-61" transform="translate(1737.792969 0)"/>
     <use xlink:href="#DejaVuSans-74" transform="translate(1799.072266 0)"/>
     <use xlink:href="#DejaVuSans-68" transform="translate(1838.28125 0)"/>
     <use xlink:href="#DejaVuSans-73" transform="translate(1901.660156 0)"/>
     <use xlink:href="#DejaVuSans-3a" transform="translate(1953.759766 0)"/>
     <use xlink:href="#DejaVuSans-20" transform="translate(1987.451172 0)"/>
     <use xlink:href="#DejaVuSans-55" transform="translate(2019.238281 0)"/>
     <use xlink:href="#DejaVuSans-6b" transform="translate(2092.431641 0)"/>
     <use xlink:href="#DejaVuSans-72" transform="translate(2150.341797 0)"/>
     <use xlink:href="#DejaVuSans-61" transform="translate(2191.455078 0)"/>
     <use xlink:href="#DejaVuSans-69" transform="translate(2252.734375 0)"/>
     <use xlink:href="#DejaVuSans-6e" transform="translate(2280.517578 0)"/>
     <use xlink:href="#DejaVuSans-65" transform="translate(2343.896484 0)"/>
    </g>
   </g>
   <g id="legend_1">
    <g id="patch_7">
     <path d="M 45.27 287.038576 
L 127.70125 287.038576 
Q 129.70125 287.038576 129.70125 285.038576 
L 129.70125 271.360451 
Q 129.70125 269.360451 127.70125 269.360451 
L 45.27 269.360451 
Q 43.27 269.360451 43.27 271.360451 
L 43.27 285.038576 
Q 43.27 287.038576 45.27 287.038576 
z
" style="fill: #ffffff; opacity: 0.8; stroke: #cccccc; stroke-linejoin: miter"/>
    </g>
    <g id="patch_8">
     <path d="M 47.27 280.958888 
L 67.27 280.958888 
L 67.27 273.958888 
L 47.27 273.958888 
z
" style="fill: #0000ff; fill-opacity: 0.5; stroke: #0000ff; stroke-opacity: 0.5; stroke-linejoin: miter"/>
    </g>
    <g id="text_28">
     <!-- confirmed -->
     <g transform="translate(75.27 280.958888) scale(0.1 -0.1)">
      <use xlink:href="#DejaVuSans-63"/>
      <use xlink:href="#DejaVuSans-6f" transform="translate(54.980469 0)"/>
      <use xlink:href="#DejaVuSans-6e" transform="translate(116.162109 0)"/>
      <use xlink:href="#DejaVuSans-66" transform="translate(179.541016 0)"/>
      <use xlink:href="#DejaVuSans-69" transform="translate(214.746094 0)"/>
      <use xlink:href="#DejaVuSans-72" transform="translate(242.529297 0)"/>
      <use xlink:href="#DejaVuSans-6d" transform="translate(281.892578 0)"/>
      <use xlink:href="#DejaVuSans-65" transform="translate(379.304688 0)"/>
      <use xlink:href="#DejaVuSans-64" transform="translate(440.828125 0)"/>
     </g>
    </g>
   </g>
  </g>
  <g id="axes_2">
   <g id="FillBetweenPolyCollection_2">
    <defs>
     <path id="mdfa653f89f" d="M 66.086364 -67.961424 
L 66.086364 -67.961424 
L 68.748217 -67.961424 
L 71.41007 -67.961424 
L 74.071923 -67.961424 
L 76.733776 -67.961424 
L 79.395629 -67.961424 
L 82.057482 -67.961424 
L 84.719334 -67.961424 
L 87.381187 -67.961424 
L 90.04304 -67.961424 
L 92.704893 -67.966249 
L 95.366746 -67.973486 
L 98.028599 -67.992785 
L 100.690452 -68.048268 
L 103.352305 -68.118226 
L 106.014158 -68.166473 
L 108.676011 -68.275027 
L 111.337864 -68.335336 
L 113.999717 -68.431829 
L 116.66157 -68.535559 
L 119.323423 -68.591043 
L 121.985276 -68.67065 
L 124.647129 -68.735783 
L 127.308982 -68.81539 
L 129.970835 -68.911883 
L 132.632688 -69.075921 
L 135.294541 -69.203775 
L 137.956394 -69.338865 
L 140.618247 -69.464306 
L 143.2801 -69.698303 
L 145.941953 -69.888877 
L 148.603806 -70.195243 
L 151.265659 -70.487135 
L 153.927512 -70.733192 
L 156.589365 -71.259081 
L 159.251218 -71.746371 
L 161.913071 -72.076861 
L 164.574924 -72.863281 
L 167.236777 -73.533909 
L 169.89863 -74.204536 
L 172.560483 -75.270787 
L 175.222336 -76.247781 
L 177.884189 -77.321268 
L 180.546042 -79.547849 
L 183.207895 -82.423347 
L 185.869748 -85.149281 
L 188.531601 -88.475885 
L 191.193454 -91.496124 
L 193.855307 -94.887861 
L 196.51716 -98.540129 
L 199.179013 -102.448105 
L 201.840866 -104.817014 
L 204.502719 -107.842077 
L 207.164572 -109.607903 
L 209.826425 -112.102253 
L 212.488278 -114.647262 
L 215.15013 -116.683269 
L 217.811983 -118.796471 
L 220.473836 -120.600895 
L 223.135689 -122.443915 
L 225.797542 -124.602951 
L 228.459395 -127.36507 
L 231.121248 -130.351536 
L 233.783101 -134.314995 
L 236.444954 -139.277159 
L 239.106807 -145.197019 
L 241.76866 -151.744085 
L 244.430513 -158.254966 
L 247.092366 -164.329215 
L 249.754219 -169.713537 
L 252.416072 -174.22942 
L 255.077925 -177.997481 
L 257.739778 -181.041842 
L 260.401631 -184.081379 
L 263.063484 -185.333379 
L 265.725337 -186.645687 
L 268.38719 -187.350087 
L 271.049043 -187.950758 
L 273.710896 -188.394627 
L 276.372749 -188.766126 
L 279.034602 -188.990472 
L 281.696455 -189.335436 
L 284.358308 -189.530834 
L 287.020161 -189.880622 
L 289.682014 -190.288306 
L 292.343867 -190.845555 
L 295.00572 -191.419689 
L 297.667573 -192.054132 
L 300.329426 -192.920159 
L 302.991279 -194.268652 
L 305.653132 -196.200929 
L 308.314985 -199.020944 
L 310.976838 -203.389675 
L 313.638691 -208.47728 
L 316.300544 -216.659907 
L 318.962397 -225.887072 
L 321.62425 -236.81493 
L 324.286103 -247.889941 
L 326.947956 -258.624813 
L 329.609809 -267.825443 
L 332.271662 -275.318142 
L 334.933515 -281.819373 
L 337.595368 -286.757415 
L 340.257221 -291.181629 
L 342.919074 -294.088488 
L 345.580926 -296.558715 
L 348.242779 -299.057889 
L 350.904632 -301.279646 
L 353.566485 -303.501403 
L 356.228338 -306.369664 
L 358.890191 -310.128075 
L 361.552044 -314.216976 
L 364.213897 -317.357831 
L 366.87575 -319.121244 
L 369.537603 -320.339471 
L 372.199456 -321.335764 
L 374.861309 -321.972619 
L 377.523162 -322.353768 
L 380.185015 -322.643247 
L 382.846868 -322.92549 
L 385.508721 -323.10159 
L 388.170574 -323.301814 
L 390.832427 -323.393482 
L 393.49428 -323.509274 
L 396.156133 -323.60818 
L 398.817986 -323.682962 
L 401.479839 -323.767394 
L 404.141692 -323.808403 
L 406.803545 -323.847 
L 409.465398 -323.890422 
L 412.127251 -323.926607 
L 414.789104 -323.972442 
L 417.450957 -323.994153 
L 420.11281 -324.027925 
L 422.774663 -324.061698 
L 425.436516 -324.100295 
L 428.098369 -324.189551 
L 430.760222 -324.245035 
L 433.422075 -324.336704 
L 436.083928 -324.442846 
L 438.745781 -324.611709 
L 441.407634 -324.828819 
L 444.069487 -325.217204 
L 446.73134 -325.704495 
L 449.393193 -326.20626 
L 452.055046 -326.695963 
L 454.716899 -327.151894 
L 457.378752 -327.583701 
L 460.040605 -327.858707 
L 462.702458 -328.107177 
L 465.364311 -328.353234 
L 468.026164 -328.546221 
L 470.688017 -328.676487 
L 473.34987 -328.811577 
L 476.011722 -328.98044 
L 478.673575 -329.09382 
L 481.335428 -329.204787 
L 483.997281 -329.351939 
L 486.659134 -329.491854 
L 489.320987 -329.593172 
L 491.98284 -329.696903 
L 494.644693 -329.860941 
L 497.306546 -329.967084 
L 499.968399 -330.111824 
L 502.630252 -330.2638 
L 505.292105 -330.425427 
L 507.953958 -330.647361 
L 510.615811 -330.891006 
L 513.277664 -331.175661 
L 515.939517 -331.448255 
L 518.60137 -331.744971 
L 521.263223 -332.01274 
L 523.925076 -332.266035 
L 526.586929 -332.463846 
L 529.248782 -332.610998 
L 531.910635 -332.717141 
L 534.572488 -332.806397 
L 537.234341 -332.907715 
L 539.896194 -332.965611 
L 542.558047 -333.001796 
L 545.2199 -333.050042 
L 547.881753 -333.08864 
L 550.543606 -333.12 
L 553.205459 -333.12 
L 555.867312 -333.12 
L 558.529165 -333.12 
L 561.191018 -333.12 
L 563.852871 -333.12 
L 566.514724 -333.12 
L 569.176577 -333.12 
L 571.83843 -333.12 
L 574.500283 -333.12 
L 577.162136 -333.12 
L 579.823989 -333.12 
L 582.485842 -333.12 
L 585.147695 -333.12 
L 587.809548 -333.12 
L 590.471401 -333.12 
L 593.133254 -333.12 
L 595.795107 -333.12 
L 598.45696 -333.12 
L 601.118813 -333.12 
L 603.780666 -333.12 
L 606.442518 -333.12 
L 609.104371 -333.12 
L 611.766224 -333.12 
L 614.428077 -333.12 
L 617.08993 -333.12 
L 619.751783 -333.12 
L 622.413636 -333.12 
L 622.413636 -67.961424 
L 622.413636 -67.961424 
L 619.751783 -67.961424 
L 617.08993 -67.961424 
L 614.428077 -67.961424 
L 611.766224 -67.961424 
L 609.104371 -67.961424 
L 606.442518 -67.961424 
L 603.780666 -67.961424 
L 601.118813 -67.961424 
L 598.45696 -67.961424 
L 595.795107 -67.961424 
L 593.133254 -67.961424 
L 590.471401 -67.961424 
L 587.809548 -67.961424 
L 585.147695 -67.961424 
L 582.485842 -67.961424 
L 579.823989 -67.961424 
L 577.162136 -67.961424 
L 574.500283 -67.961424 
L 571.83843 -67.961424 
L 569.176577 -67.961424 
L 566.514724 -67.961424 
L 563.852871 -67.961424 
L 561.191018 -67.961424 
L 558.529165 -67.961424 
L 555.867312 -67.961424 
L 553.205459 -67.961424 
L 550.543606 -67.961424 
L 547.881753 -67.961424 
L 545.2199 -67.961424 
L 542.558047 -67.961424 
L 539.896194 -67.961424 
L 537.234341 -67.961424 
L 534.572488 -67.961424 
L 531.910635 -67.961424 
L 529.248782 -67.961424 
L 526.586929 -67.961424 
L 523.925076 -67.961424 
L 521.263223 -67.961424 
L 518.60137 -67.961424 
L 515.939517 -67.961424 
L 513.277664 -67.961424 
L 510.615811 -67.961424 
L 507.953958 -67.961424 
L 505.292105 -67.961424 
L 502.630252 -67.961424 
L 499.968399 -67.961424 
L 497.306546 -67.961424 
L 494.644693 -67.961424 
L 491.98284 -67.961424 
L 489.320987 -67.961424 
L 486.659134 -67.961424 
L 483.997281 -67.961424 
L 481.335428 -67.961424 
L 478.673575 -67.961424 
L 476.011722 -67.961424 
L 473.34987 -67.961424 
L 470.688017 -67.961424 
L 468.026164 -67.961424 
L 465.364311 -67.961424 
L 462.702458 -67.961424 
L 460.040605 -67.961424 
L 457.378752 -67.961424 
L 454.716899 -67.961424 
L 452.055046 -67.961424 
L 449.393193 -67.961424 
L 446.73134 -67.961424 
L 444.069487 -67.961424 
L 441.407634 -67.961424 
L 438.745781 -67.961424 
L 436.083928 -67.961424 
L 433.422075 -67.961424 
L 430.760222 -67.961424 
L 428.098369 -67.961424 
L 425.436516 -67.961424 
L 422.774663 -67.961424 
L 420.11281 -67.961424 
L 417.450957 -67.961424 
L 414.789104 -67.961424 
L 412.127251 -67.961424 
L 409.465398 -67.961424 
L 406.803545 -67.961424 
L 404.141692 -67.961424 
L 401.479839 -67.961424 
L 398.817986 -67.961424 
L 396.156133 -67.961424 
L 393.49428 -67.961424 
L 390.832427 -67.961424 
L 388.170574 -67.961424 
L 385.508721 -67.961424 
L 382.846868 -67.961424 
L 380.185015 -67.961424 
L 377.523162 -67.961424 
L 374.861309 -67.961424 
L 372.199456 -67.961424 
L 369.537603 -67.961424 
L 366.87575 -67.961424 
L 364.213897 -67.961424 
L 361.552044 -67.961424 
L 358.890191 -67.961424 
L 356.228338 -67.961424 
L 353.566485 -67.961424 
L 350.904632 -67.961424 
L 348.242779 -67.961424 
L 345.580926 -67.961424 
L 342.919074 -67.961424 
L 340.257221 -67.961424 
L 337.595368 -67.961424 
L 334.933515 -67.961424 
L 332.271662 -67.961424 
L 329.609809 -67.961424 
L 326.947956 -67.961424 
L 324.286103 -67.961424 
L 321.62425 -67.961424 
L 318.962397 -67.961424 
L 316.300544 -67.961424 
L 313.638691 -67.961424 
L 310.976838 -67.961424 
L 308.314985 -67.961424 
L 305.653132 -67.961424 
L 302.991279 -67.961424 
L 300.329426 -67.961424 
L 297.667573 -67.961424 
L 295.00572 -67.961424 
L 292.343867 -67.961424 
L 289.682014 -67.961424 
L 287.020161 -67.961424 
L 284.358308 -67.961424 
L 281.696455 -67.961424 
L 279.034602 -67.961424 
L 276.372749 -67.961424 
L 273.710896 -67.961424 
L 271.049043 -67.961424 
L 268.38719 -67.961424 
L 265.725337 -67.961424 
L 263.063484 -67.961424 
L 260.401631 -67.961424 
L 257.739778 -67.961424 
L 255.077925 -67.961424 
L 252.416072 -67.961424 
L 249.754219 -67.961424 
L 247.092366 -67.961424 
L 244.430513 -67.961424 
L 241.76866 -67.961424 
L 239.106807 -67.961424 
L 236.444954 -67.961424 
L 233.783101 -67.961424 
L 231.121248 -67.961424 
L 228.459395 -67.961424 
L 225.797542 -67.961424 
L 223.135689 -67.961424 
L 220.473836 -67.961424 
L 217.811983 -67.961424 
L 215.15013 -67.961424 
L 212.488278 -67.961424 
L 209.826425 -67.961424 
L 207.164572 -67.961424 
L 204.502719 -67.961424 
L 201.840866 -67.961424 
L 199.179013 -67.961424 
L 196.51716 -67.961424 
L 193.855307 -67.961424 
L 191.193454 -67.961424 
L 188.531601 -67.961424 
L 185.869748 -67.961424 
L 183.207895 -67.961424 
L 180.546042 -67.961424 
L 177.884189 -67.961424 
L 175.222336 -67.961424 
L 172.560483 -67.961424 
L 169.89863 -67.961424 
L 167.236777 -67.961424 
L 164.574924 -67.961424 
L 161.913071 -67.961424 
L 159.251218 -67.961424 
L 156.589365 -67.961424 
L 153.927512 -67.961424 
L 151.265659 -67.961424 
L 148.603806 -67.961424 
L 145.941953 -67.961424 
L 143.2801 -67.961424 
L 140.618247 -67.961424 
L 137.956394 -67.961424 
L 135.294541 -67.961424 
L 132.632688 -67.961424 
L 129.970835 -67.961424 
L 127.308982 -67.961424 
L 124.647129 -67.961424 
L 121.985276 -67.961424 
L 119.323423 -67.961424 
L 116.66157 -67.961424 
L 113.999717 -67.961424 
L 111.337864 -67.961424 
L 108.676011 -67.961424 
L 106.014158 -67.961424 
L 103.352305 -67.961424 
L 100.690452 -67.961424 
L 98.028599 -67.961424 
L 95.366746 -67.961424 
L 92.704893 -67.961424 
L 90.04304 -67.961424 
L 87.381187 -67.961424 
L 84.719334 -67.961424 
L 82.057482 -67.961424 
L 79.395629 -67.961424 
L 76.733776 -67.961424 
L 74.071923 -67.961424 
L 71.41007 -67.961424 
L 68.748217 -67.961424 
L 66.086364 -67.961424 
z
" style="stroke: #ffa500; stroke-opacity: 0.5"/>
    </defs>
    <g clip-path="url(#p9f39e4371b)">
     <use xlink:href="#mdfa653f89f" x="0" y="360" style="fill: #ffa500; fill-opacity: 0.5; stroke: #ffa500; stroke-opacity: 0.5"/>
    </g>
   </g>
   <g id="matplotlib.axis_3">
    <g id="ytick_7">
     <g id="line2d_25">
      <defs>
       <path id="m4407ca7265" d="M 0 0 
L 3.5 0 
" style="stroke: #000000; stroke-width: 0.8"/>
      </defs>
      <g>
       <use xlink:href="#m4407ca7265" x="650.23" y="292.038576" style="stroke: #000000; stroke-width: 0.8"/>
      </g>
     </g>
     <g id="text_29">
      <!-- 0 -->
      <g transform="translate(657.23 295.837794) scale(0.1 -0.1)">
       <use xlink:href="#DejaVuSans-30"/>
      </g>
     </g>
    </g>
    <g id="ytick_8">
     <g id="line2d_26">
      <g>
       <use xlink:href="#m4407ca7265" x="650.23" y="243.79196" style="stroke: #000000; stroke-width: 0.8"/>
      </g>
     </g>
     <g id="text_30">
      <!-- 20000 -->
      <g transform="translate(657.23 247.591179) scale(0.1 -0.1)">
       <use xlink:href="#DejaVuSans-32"/>
       <use xlink:href="#DejaVuSans-30" transform="translate(63.623047 0)"/>
       <use xlink:href="#DejaVuSans-30" transform="translate(127.246094 0)"/>
       <use xlink:href="#DejaVuSans-30" transform="translate(190.869141 0)"/>
       <use xlink:href="#DejaVuSans-30" transform="translate(254.492188 0)"/>
      </g>
     </g>
    </g>
    <g id="ytick_9">
     <g id="line2d_27">
      <g>
       <use xlink:href="#m4407ca7265" x="650.23" y="195.545344" style="stroke: #000000; stroke-width: 0.8"/>
      </g>
     </g>
     <g id="text_31">
      <!-- 40000 -->
      <g transform="translate(657.23 199.344563) scale(0.1 -0.1)">
       <use xlink:href="#DejaVuSans-34"/>
       <use xlink:href="#DejaVuSans-30" transform="translate(63.623047 0)"/>
       <use xlink:href="#DejaVuSans-30" transform="translate(127.246094 0)"/>
       <use xlink:href="#DejaVuSans-30" transform="translate(190.869141 0)"/>
       <use xlink:href="#DejaVuSans-30" transform="translate(254.492188 0)"/>
      </g>
     </g>
    </g>
    <g id="ytick_10">
     <g id="line2d_28">
      <g>
       <use xlink:href="#m4407ca7265" x="650.23" y="147.298728" style="stroke: #000000; stroke-width: 0.8"/>
      </g>
     </g>
     <g id="text_32">
      <!-- 60000 -->
      <g transform="translate(657.23 151.097947) scale(0.1 -0.1)">
       <use xlink:href="#DejaVuSans-36"/>
       <use xlink:href="#DejaVuSans-30" transform="translate(63.623047 0)"/>
       <use xlink:href="#DejaVuSans-30" transform="translate(127.246094 0)"/>
       <use xlink:href="#DejaVuSans-30" transform="translate(190.869141 0)"/>
       <use xlink:href="#DejaVuSans-30" transform="translate(254.492188 0)"/>
      </g>
     </g>
    </g>
    <g id="ytick_11">
     <g id="line2d_29">
      <g>
       <use xlink:href="#m4407ca7265" x="650.23" y="99.052113" style="stroke: #000000; stroke-width: 0.8"/>
      </g>
     </g>
     <g id="text_33">
      <!-- 80000 -->
      <g transform="translate(657.23 102.851331) scale(0.1 -0.1)">
       <defs>
        <path id="DejaVuSans-38" d="M 2034 2216 
Q 1584 2216 1326 1975 
Q 1069 1734 1069 1313 
Q 1069 891 1326 650 
Q 1584 409 2034 409 
Q 2484 409 2743 651 
Q 3003 894 3003 1313 
Q 3003 1734 2745 1975 
Q 2488 2216 2034 2216 
z
M 1403 2484 
Q 997 2584 770 2862 
Q 544 3141 544 3541 
Q 544 4100 942 4425 
Q 1341 4750 2034 4750 
Q 2731 4750 3128 4425 
Q 3525 4100 3525 3541 
Q 3525 3141 3298 2862 
Q 3072 2584 2669 2484 
Q 3125 2378 3379 2068 
Q 3634 1759 3634 1313 
Q 3634 634 3220 271 
Q 2806 -91 2034 -91 
Q 1263 -91 848 271 
Q 434 634 434 1313 
Q 434 1759 690 2068 
Q 947 2378 1403 2484 
z
M 1172 3481 
Q 1172 3119 1398 2916 
Q 1625 2713 2034 2713 
Q 2441 2713 2670 2916 
Q 2900 3119 2900 3481 
Q 2900 3844 2670 4047 
Q 2441 4250 2034 4250 
Q 1625 4250 1398 4047 
Q 1172 3844 1172 3481 
z
" transform="scale(0.015625)"/>
       </defs>
       <use xlink:href="#DejaVuSans-38"/>
       <use xlink:href="#DejaVuSans-30" transform="translate(63.623047 0)"/>
       <use xlink:href="#DejaVuSans-30" transform="translate(127.246094 0)"/>
       <use xlink:href="#DejaVuSans-30" transform="translate(190.869141 0)"/>
       <use xlink:href="#DejaVuSans-30" transform="translate(254.492188 0)"/>
      </g>
     </g>
    </g>
    <g id="ytick_12">
     <g id="line2d_30">
      <g>
       <use xlink:href="#m4407ca7265" x="650.23" y="50.805497" style="stroke: #000000; stroke-width: 0.8"/>
      </g>
     </g>
     <g id="text_34">
      <!-- 100000 -->
      <g transform="translate(657.23 54.604716) scale(0.1 -0.1)">
       <use xlink:href="#DejaVuSans-31"/>
       <use xlink:href="#DejaVuSans-30" transform="translate(63.623047 0)"/>
       <use xlink:href="#DejaVuSans-30" transform="translate(127.246094 0)"/>
       <use xlink:href="#DejaVuSans-30" transform="translate(190.869141 0)"/>
       <use xlink:href="#DejaVuSans-30" transform="translate(254.492188 0)"/>
       <use xlink:href="#DejaVuSans-30" transform="translate(318.115234 0)"/>
      </g>
     </g>
    </g>
    <g id="text_35">
     <!-- Deaths -->
     <g transform="translate(707.003438 177.183507) rotate(-90) scale(0.1 -0.1)">
      <defs>
       <path id="DejaVuSans-44" d="M 1259 4147 
L 1259 519 
L 2022 519 
Q 2988 519 3436 956 
Q 3884 1394 3884 2338 
Q 3884 3275 3436 3711 
Q 2988 4147 2022 4147 
L 1259 4147 
z
M 628 4666 
L 1925 4666 
Q 3281 4666 3915 4102 
Q 4550 3538 4550 2338 
Q 4550 1131 3912 565 
Q 3275 0 1925 0 
L 628 0 
L 628 4666 
z
" transform="scale(0.015625)"/>
      </defs>
      <use xlink:href="#DejaVuSans-44"/>
      <use xlink:href="#DejaVuSans-65" transform="translate(77.001953 0)"/>
      <use xlink:href="#DejaVuSans-61" transform="translate(138.525391 0)"/>
      <use xlink:href="#DejaVuSans-74" transform="translate(199.804688 0)"/>
      <use xlink:href="#DejaVuSans-68" transform="translate(239.013672 0)"/>
      <use xlink:href="#DejaVuSans-73" transform="translate(302.392578 0)"/>
     </g>
    </g>
   </g>
   <g id="patch_9">
    <path d="M 38.27 292.038576 
L 38.27 26.88 
" style="fill: none; stroke: #000000; stroke-width: 0.8; stroke-linejoin: miter; stroke-linecap: square"/>
   </g>
   <g id="patch_10">
    <path d="M 650.23 292.038576 
L 650.23 26.88 
" style="fill: none; stroke: #000000; stroke-width: 0.8; stroke-linejoin: miter; stroke-linecap: square"/>
   </g>
   <g id="patch_11">
    <path d="M 38.27 292.038576 
L 650.23 292.038576 
" style="fill: none; stroke: #000000; stroke-width: 0.8; stroke-linejoin: miter; stroke-linecap: square"/>
   </g>
   <g id="patch_12">
    <path d="M 38.27 26.88 
L 650.23 26.88 
" style="fill: none; stroke: #000000; stroke-width: 0.8; stroke-linejoin: miter; stroke-linecap: square"/>
   </g>
   <g id="legend_2">
    <g id="patch_13">
     <path d="M 45.27 49.558125 
L 111.366875 49.558125 
Q 113.366875 49.558125 113.366875 47.558125 
L 113.366875 33.88 
Q 113.366875 31.88 111.366875 31.88 
L 45.27 31.88 
Q 43.27 31.88 43.27 33.88 
L 43.27 47.558125 
Q 43.27 49.558125 45.27 49.558125 
z
" style="fill: #ffffff; opacity: 0.8; stroke: #cccccc; stroke-linejoin: miter"/>
    </g>
    <g id="patch_14">
     <path d="M 47.27 43.478438 
L 67.27 43.478438 
L 67.27 36.478438 
L 47.27 36.478438 
z
" style="fill: #ffa500; fill-opacity: 0.5; stroke: #ffa500; stroke-opacity: 0.5; stroke-linejoin: miter"/>
    </g>
    <g id="text_36">
     <!-- deaths -->
     <g transform="translate(75.27 43.478438) scale(0.1 -0.1)">
      <use xlink:href="#DejaVuSans-64"/>
      <use xlink:href="#DejaVuSans-65" transform="translate(63.476562 0)"/>
      <use xlink:href="#DejaVuSans-61" transform="translate(125 0)"/>
      <use xlink:href="#DejaVuSans-74" transform="translate(186.279297 0)"/>
      <use xlink:href="#DejaVuSans-68" transform="translate(225.488281 0)"/>
      <use xlink:href="#DejaVuSans-73" transform="translate(288.867188 0)"/>
     </g>
    </g>
   </g>
  </g>
 </g>
 <defs>
  <clipPath id="p9f39e4371b">
   <rect x="38.27" y="26.88" width="611.96" height="265.158576"/>
  </clipPath>
 </defs>
</svg>
