<?xml version="1.0" encoding="utf-8" standalone="no"?>
<!DOCTYPE svg PUBLIC "-//W3C//DTD SVG 1.1//EN"
  "http://www.w3.org/Graphics/SVG/1.1/DTD/svg11.dtd">
<svg xmlns:xlink="http://www.w3.org/1999/xlink" width="720pt" height="360pt" viewBox="0 0 720 360" xmlns="http://www.w3.org/2000/svg" version="1.1">
 <metadata>
  <rdf:RDF xmlns:dc="http://purl.org/dc/elements/1.1/" xmlns:cc="http://creativecommons.org/ns#" xmlns:rdf="http://www.w3.org/1999/02/22-rdf-syntax-ns#">
   <cc:Work>
    <dc:type rdf:resource="http://purl.org/dc/dcmitype/StillImage"/>
    <dc:date>2025-04-15T20:52:53.977880</dc:date>
    <dc:format>image/svg+xml</dc:format>
    <dc:creator>
     <cc:Agent>
      <dc:title>Matplotlib v3.10.1, https://matplotlib.org/</dc:title>
     </cc:Agent>
    </dc:creator>
   </cc:Work>
  </rdf:RDF>
 </metadata>
 <defs>
  <style type="text/css">*{stroke-linejoin: round; stroke-linecap: butt}</style>
 </defs>
 <g id="figure_1">
  <g id="patch_1">
   <path d="M 0 360 
L 720 360 
L 720 0 
L 0 0 
z
" style="fill: #ffffff"/>
  </g>
  <g id="axes_1">
   <g id="patch_2">
    <path d="M 69.77 295.342042 
L 662.83 295.342042 
L 662.83 26.88 
L 69.77 26.88 
z
" style="fill: #ffffff"/>
   </g>
   <g id="FillBetweenPolyCollection_1">
    <path d="M 96.727273 295.342042 
L 96.727273 295.322151 
L 99.436546 295.223802 
L 102.14582 294.911074 
L 104.855094 294.496682 
L 107.564367 293.48004 
L 110.273641 292.609264 
L 112.982915 292.014749 
L 115.692188 292.086577 
L 118.401462 292.04348 
L 121.110735 292.455662 
L 123.820009 292.758445 
L 126.529283 292.65015 
L 129.238556 291.877723 
L 131.94783 290.991477 
L 134.657104 289.944998 
L 137.366377 288.508439 
L 140.075651 289.609064 
L 142.784925 289.87759 
L 145.494198 289.723989 
L 148.203472 288.660935 
L 150.912746 287.593461 
L 153.622019 286.356914 
L 156.331293 284.265063 
L 159.040566 280.697975 
L 161.74984 280.068099 
L 164.459114 276.098774 
L 167.168387 274.44452 
L 169.877661 272.034415 
L 172.586935 271.805671 
L 175.296208 265.287006 
L 178.005482 257.976023 
L 180.714756 256.128386 
L 183.424029 249.390922 
L 186.133303 241.727429 
L 188.842577 229.524408 
L 191.55185 212.111096 
L 194.261124 197.378625 
L 196.970397 189.749388 
L 199.679671 198.757722 
L 202.388945 210.510989 
L 205.098218 219.385612 
L 207.807492 231.922357 
L 210.516766 240.91743 
L 213.226039 251.520345 
L 215.935313 246.275797 
L 218.644587 261.514379 
L 221.35386 265.331208 
L 224.063134 267.154533 
L 226.772407 266.060538 
L 229.481681 257.562735 
L 232.190955 246.198444 
L 234.900228 234.149025 
L 237.609502 228.997301 
L 240.318776 206.563766 
L 243.028049 179.840443 
L 245.737323 180.993005 
L 248.446597 179.072436 
L 251.15587 193.776175 
L 253.865144 209.903214 
L 256.574418 233.895969 
L 259.283691 254.53049 
L 261.992965 258.714193 
L 264.702238 264.577566 
L 267.411512 273.654413 
L 270.120786 282.555557 
L 272.830059 284.984447 
L 275.539333 289.14384 
L 278.248607 290.524042 
L 280.95788 291.55284 
L 283.667154 291.418024 
L 286.376428 291.694286 
L 289.085701 290.751682 
L 291.794975 290.142801 
L 294.504249 288.799066 
L 297.213522 287.740432 
L 299.922796 285.310436 
L 302.632069 284.80764 
L 305.341343 280.570894 
L 308.050617 273.774863 
L 310.75989 259.072228 
L 313.469164 245.881296 
L 316.178438 223.949452 
L 318.887711 195.800619 
L 321.596985 190.799182 
L 324.306259 141.360537 
L 327.015532 127.155173 
L 329.724806 127.08445 
L 332.434079 140.700825 
L 335.143353 171.615587 
L 337.852627 198.738936 
L 340.5619 213.427205 
L 343.271174 227.702187 
L 345.980448 242.829159 
L 348.689721 253.711651 
L 351.398995 264.419545 
L 354.108269 264.290254 
L 356.817542 234.467278 
L 359.526816 172.858763 
L 362.23609 80.825022 
L 364.945363 26.88 
L 367.654637 35.373382 
L 370.36391 83.571061 
L 373.073184 183.574392 
L 375.782458 251.658476 
L 378.491731 260.642498 
L 381.201005 261.796166 
L 383.910279 270.680734 
L 386.619552 279.14649 
L 389.328826 282.754465 
L 392.0381 286.462999 
L 394.747373 289.426732 
L 397.456647 290.677644 
L 400.165921 291.218011 
L 402.875194 292.202607 
L 405.584468 292.986084 
L 408.293741 293.246875 
L 411.003015 293.573969 
L 413.712289 294.165168 
L 416.421562 294.188374 
L 419.130836 294.257992 
L 421.84011 294.119861 
L 424.549383 294.175114 
L 427.258657 293.760721 
L 429.967931 293.023656 
L 432.677204 292.263384 
L 435.386478 291.040099 
L 438.095751 289.331698 
L 440.805025 285.271759 
L 443.514299 282.703633 
L 446.223572 277.490027 
L 448.932846 268.971228 
L 451.64212 254.805646 
L 454.351393 246.568635 
L 457.060667 248.043871 
L 459.769941 255.104008 
L 462.479214 270.021022 
L 465.188488 276.657927 
L 467.897762 277.243601 
L 470.607035 284.747968 
L 473.316309 287.256422 
L 476.025582 287.875247 
L 478.734856 289.826758 
L 481.44413 290.026772 
L 484.153403 290.605816 
L 486.862677 290.526252 
L 489.571951 291.80258 
L 492.281224 291.572731 
L 494.990498 292.060056 
L 497.699772 292.347368 
L 500.409045 291.917505 
L 503.118319 292.056741 
L 505.827593 291.244532 
L 508.536866 289.504085 
L 511.24614 287.226585 
L 513.955413 284.521433 
L 516.664687 281.244972 
L 519.373961 278.355278 
L 522.083234 274.767194 
L 524.792508 273.268752 
L 527.501782 274.366062 
L 530.211055 276.464544 
L 532.920329 277.003807 
L 535.629603 283.35782 
L 538.338876 285.509344 
L 541.04815 288.035479 
L 543.757423 290.10523 
L 546.466697 291.669975 
L 549.175971 292.02801 
L 551.885244 293.170627 
L 554.594518 293.628116 
L 557.303792 293.896642 
L 560.013065 294.241416 
L 562.722339 294.349711 
L 562.722339 295.342042 
L 562.722339 295.342042 
L 560.013065 295.342042 
L 557.303792 295.342042 
L 554.594518 295.342042 
L 551.885244 295.342042 
L 549.175971 295.342042 
L 546.466697 295.342042 
L 543.757423 295.342042 
L 541.04815 295.342042 
L 538.338876 295.342042 
L 535.629603 295.342042 
L 532.920329 295.342042 
L 530.211055 295.342042 
L 527.501782 295.342042 
L 524.792508 295.342042 
L 522.083234 295.342042 
L 519.373961 295.342042 
L 516.664687 295.342042 
L 513.955413 295.342042 
L 511.24614 295.342042 
L 508.536866 295.342042 
L 505.827593 295.342042 
L 503.118319 295.342042 
L 500.409045 295.342042 
L 497.699772 295.342042 
L 494.990498 295.342042 
L 492.281224 295.342042 
L 489.571951 295.342042 
L 486.862677 295.342042 
L 484.153403 295.342042 
L 481.44413 295.342042 
L 478.734856 295.342042 
L 476.025582 295.342042 
L 473.316309 295.342042 
L 470.607035 295.342042 
L 467.897762 295.342042 
L 465.188488 295.342042 
L 462.479214 295.342042 
L 459.769941 295.342042 
L 457.060667 295.342042 
L 454.351393 295.342042 
L 451.64212 295.342042 
L 448.932846 295.342042 
L 446.223572 295.342042 
L 443.514299 295.342042 
L 440.805025 295.342042 
L 438.095751 295.342042 
L 435.386478 295.342042 
L 432.677204 295.342042 
L 429.967931 295.342042 
L 427.258657 295.342042 
L 424.549383 295.342042 
L 421.84011 295.342042 
L 419.130836 295.342042 
L 416.421562 295.342042 
L 413.712289 295.342042 
L 411.003015 295.342042 
L 408.293741 295.342042 
L 405.584468 295.342042 
L 402.875194 295.342042 
L 400.165921 295.342042 
L 397.456647 295.342042 
L 394.747373 295.342042 
L 392.0381 295.342042 
L 389.328826 295.342042 
L 386.619552 295.342042 
L 383.910279 295.342042 
L 381.201005 295.342042 
L 378.491731 295.342042 
L 375.782458 295.342042 
L 373.073184 295.342042 
L 370.36391 295.342042 
L 367.654637 295.342042 
L 364.945363 295.342042 
L 362.23609 295.342042 
L 359.526816 295.342042 
L 356.817542 295.342042 
L 354.108269 295.342042 
L 351.398995 295.342042 
L 348.689721 295.342042 
L 345.980448 295.342042 
L 343.271174 295.342042 
L 340.5619 295.342042 
L 337.852627 295.342042 
L 335.143353 295.342042 
L 332.434079 295.342042 
L 329.724806 295.342042 
L 327.015532 295.342042 
L 324.306259 295.342042 
L 321.596985 295.342042 
L 318.887711 295.342042 
L 316.178438 295.342042 
L 313.469164 295.342042 
L 310.75989 295.342042 
L 308.050617 295.342042 
L 305.341343 295.342042 
L 302.632069 295.342042 
L 299.922796 295.342042 
L 297.213522 295.342042 
L 294.504249 295.342042 
L 291.794975 295.342042 
L 289.085701 295.342042 
L 286.376428 295.342042 
L 283.667154 295.342042 
L 280.95788 295.342042 
L 278.248607 295.342042 
L 275.539333 295.342042 
L 272.830059 295.342042 
L 270.120786 295.342042 
L 267.411512 295.342042 
L 264.702238 295.342042 
L 261.992965 295.342042 
L 259.283691 295.342042 
L 256.574418 295.342042 
L 253.865144 295.342042 
L 251.15587 295.342042 
L 248.446597 295.342042 
L 245.737323 295.342042 
L 243.028049 295.342042 
L 240.318776 295.342042 
L 237.609502 295.342042 
L 234.900228 295.342042 
L 232.190955 295.342042 
L 229.481681 295.342042 
L 226.772407 295.342042 
L 224.063134 295.342042 
L 221.35386 295.342042 
L 218.644587 295.342042 
L 215.935313 295.342042 
L 213.226039 295.342042 
L 210.516766 295.342042 
L 207.807492 295.342042 
L 205.098218 295.342042 
L 202.388945 295.342042 
L 199.679671 295.342042 
L 196.970397 295.342042 
L 194.261124 295.342042 
L 191.55185 295.342042 
L 188.842577 295.342042 
L 186.133303 295.342042 
L 183.424029 295.342042 
L 180.714756 295.342042 
L 178.005482 295.342042 
L 175.296208 295.342042 
L 172.586935 295.342042 
L 169.877661 295.342042 
L 167.168387 295.342042 
L 164.459114 295.342042 
L 161.74984 295.342042 
L 159.040566 295.342042 
L 156.331293 295.342042 
L 153.622019 295.342042 
L 150.912746 295.342042 
L 148.203472 295.342042 
L 145.494198 295.342042 
L 142.784925 295.342042 
L 140.075651 295.342042 
L 137.366377 295.342042 
L 134.657104 295.342042 
L 131.94783 295.342042 
L 129.238556 295.342042 
L 126.529283 295.342042 
L 123.820009 295.342042 
L 121.110735 295.342042 
L 118.401462 295.342042 
L 115.692188 295.342042 
L 112.982915 295.342042 
L 110.273641 295.342042 
L 107.564367 295.342042 
L 104.855094 295.342042 
L 102.14582 295.342042 
L 99.436546 295.342042 
L 96.727273 295.342042 
z
" clip-path="url(#p30c32c093f)" style="fill: #0000ff; fill-opacity: 0.5; stroke: #0000ff; stroke-opacity: 0.5"/>
    <path d="M 611.489265 295.342042 
L 611.489265 295.196176 
L 614.198538 295.220487 
L 616.907812 295.159709 
L 619.617085 294.469056 
L 622.326359 294.578455 
L 625.035633 294.212685 
L 627.744906 294.508837 
L 630.45418 294.493367 
L 633.163454 294.496682 
L 635.872727 294.650283 
L 635.872727 295.342042 
L 635.872727 295.342042 
L 633.163454 295.342042 
L 630.45418 295.342042 
L 627.744906 295.342042 
L 625.035633 295.342042 
L 622.326359 295.342042 
L 619.617085 295.342042 
L 616.907812 295.342042 
L 614.198538 295.342042 
L 611.489265 295.342042 
z
" clip-path="url(#p30c32c093f)" style="fill: #0000ff; fill-opacity: 0.5; stroke: #0000ff; stroke-opacity: 0.5"/>
   </g>
   <g id="matplotlib.axis_1">
    <g id="xtick_1">
     <g id="line2d_1">
      <defs>
       <path id="m8940bb147f" d="M 0 0 
L 0 3.5 
" style="stroke: #000000; stroke-width: 0.8"/>
      </defs>
      <g>
       <use xlink:href="#m8940bb147f" x="103.306937" y="295.342042" style="stroke: #000000; stroke-width: 0.8"/>
      </g>
     </g>
     <g id="text_1">
      <!-- Apr 2020 -->
      <g transform="translate(100.028752 348.671824) rotate(-75) scale(0.1 -0.1)">
       <defs>
        <path id="DejaVuSans-41" d="M 2188 4044 
L 1331 1722 
L 3047 1722 
L 2188 4044 
z
M 1831 4666 
L 2547 4666 
L 4325 0 
L 3669 0 
L 3244 1197 
L 1141 1197 
L 716 0 
L 50 0 
L 1831 4666 
z
" transform="scale(0.015625)"/>
        <path id="DejaVuSans-70" d="M 1159 525 
L 1159 -1331 
L 581 -1331 
L 581 3500 
L 1159 3500 
L 1159 2969 
Q 1341 3281 1617 3432 
Q 1894 3584 2278 3584 
Q 2916 3584 3314 3078 
Q 3713 2572 3713 1747 
Q 3713 922 3314 415 
Q 2916 -91 2278 -91 
Q 1894 -91 1617 61 
Q 1341 213 1159 525 
z
M 3116 1747 
Q 3116 2381 2855 2742 
Q 2594 3103 2138 3103 
Q 1681 3103 1420 2742 
Q 1159 2381 1159 1747 
Q 1159 1113 1420 752 
Q 1681 391 2138 391 
Q 2594 391 2855 752 
Q 3116 1113 3116 1747 
z
" transform="scale(0.015625)"/>
        <path id="DejaVuSans-72" d="M 2631 2963 
Q 2534 3019 2420 3045 
Q 2306 3072 2169 3072 
Q 1681 3072 1420 2755 
Q 1159 2438 1159 1844 
L 1159 0 
L 581 0 
L 581 3500 
L 1159 3500 
L 1159 2956 
Q 1341 3275 1631 3429 
Q 1922 3584 2338 3584 
Q 2397 3584 2469 3576 
Q 2541 3569 2628 3553 
L 2631 2963 
z
" transform="scale(0.015625)"/>
        <path id="DejaVuSans-20" transform="scale(0.015625)"/>
        <path id="DejaVuSans-32" d="M 1228 531 
L 3431 531 
L 3431 0 
L 469 0 
L 469 531 
Q 828 903 1448 1529 
Q 2069 2156 2228 2338 
Q 2531 2678 2651 2914 
Q 2772 3150 2772 3378 
Q 2772 3750 2511 3984 
Q 2250 4219 1831 4219 
Q 1534 4219 1204 4116 
Q 875 4013 500 3803 
L 500 4441 
Q 881 4594 1212 4672 
Q 1544 4750 1819 4750 
Q 2544 4750 2975 4387 
Q 3406 4025 3406 3419 
Q 3406 3131 3298 2873 
Q 3191 2616 2906 2266 
Q 2828 2175 2409 1742 
Q 1991 1309 1228 531 
z
" transform="scale(0.015625)"/>
        <path id="DejaVuSans-30" d="M 2034 4250 
Q 1547 4250 1301 3770 
Q 1056 3291 1056 2328 
Q 1056 1369 1301 889 
Q 1547 409 2034 409 
Q 2525 409 2770 889 
Q 3016 1369 3016 2328 
Q 3016 3291 2770 3770 
Q 2525 4250 2034 4250 
z
M 2034 4750 
Q 2819 4750 3233 4129 
Q 3647 3509 3647 2328 
Q 3647 1150 3233 529 
Q 2819 -91 2034 -91 
Q 1250 -91 836 529 
Q 422 1150 422 2328 
Q 422 3509 836 4129 
Q 1250 4750 2034 4750 
z
" transform="scale(0.015625)"/>
       </defs>
       <use xlink:href="#DejaVuSans-41"/>
       <use xlink:href="#DejaVuSans-70" transform="translate(68.408203 0)"/>
       <use xlink:href="#DejaVuSans-72" transform="translate(131.884766 0)"/>
       <use xlink:href="#DejaVuSans-20" transform="translate(172.998047 0)"/>
       <use xlink:href="#DejaVuSans-32" transform="translate(204.785156 0)"/>
       <use xlink:href="#DejaVuSans-30" transform="translate(268.408203 0)"/>
       <use xlink:href="#DejaVuSans-32" transform="translate(332.03125 0)"/>
       <use xlink:href="#DejaVuSans-30" transform="translate(395.654297 0)"/>
      </g>
     </g>
    </g>
    <g id="xtick_2">
     <g id="line2d_2">
      <g>
       <use xlink:href="#m8940bb147f" x="138.527495" y="295.342042" style="stroke: #000000; stroke-width: 0.8"/>
      </g>
     </g>
     <g id="text_2">
      <!-- Jul 2020 -->
      <g transform="translate(135.926687 343.615806) rotate(-75) scale(0.1 -0.1)">
       <defs>
        <path id="DejaVuSans-4a" d="M 628 4666 
L 1259 4666 
L 1259 325 
Q 1259 -519 939 -900 
Q 619 -1281 -91 -1281 
L -331 -1281 
L -331 -750 
L -134 -750 
Q 284 -750 456 -515 
Q 628 -281 628 325 
L 628 4666 
z
" transform="scale(0.015625)"/>
        <path id="DejaVuSans-75" d="M 544 1381 
L 544 3500 
L 1119 3500 
L 1119 1403 
Q 1119 906 1312 657 
Q 1506 409 1894 409 
Q 2359 409 2629 706 
Q 2900 1003 2900 1516 
L 2900 3500 
L 3475 3500 
L 3475 0 
L 2900 0 
L 2900 538 
Q 2691 219 2414 64 
Q 2138 -91 1772 -91 
Q 1169 -91 856 284 
Q 544 659 544 1381 
z
M 1991 3584 
L 1991 3584 
z
" transform="scale(0.015625)"/>
        <path id="DejaVuSans-6c" d="M 603 4863 
L 1178 4863 
L 1178 0 
L 603 0 
L 603 4863 
z
" transform="scale(0.015625)"/>
       </defs>
       <use xlink:href="#DejaVuSans-4a"/>
       <use xlink:href="#DejaVuSans-75" transform="translate(29.492188 0)"/>
       <use xlink:href="#DejaVuSans-6c" transform="translate(92.871094 0)"/>
       <use xlink:href="#DejaVuSans-20" transform="translate(120.654297 0)"/>
       <use xlink:href="#DejaVuSans-32" transform="translate(152.441406 0)"/>
       <use xlink:href="#DejaVuSans-30" transform="translate(216.064453 0)"/>
       <use xlink:href="#DejaVuSans-32" transform="translate(279.6875 0)"/>
       <use xlink:href="#DejaVuSans-30" transform="translate(343.310547 0)"/>
      </g>
     </g>
    </g>
    <g id="xtick_3">
     <g id="line2d_3">
      <g>
       <use xlink:href="#m8940bb147f" x="174.135091" y="295.342042" style="stroke: #000000; stroke-width: 0.8"/>
      </g>
     </g>
     <g id="text_3">
      <!-- Oct 2020 -->
      <g transform="translate(170.858119 348.662769) rotate(-75) scale(0.1 -0.1)">
       <defs>
        <path id="DejaVuSans-4f" d="M 2522 4238 
Q 1834 4238 1429 3725 
Q 1025 3213 1025 2328 
Q 1025 1447 1429 934 
Q 1834 422 2522 422 
Q 3209 422 3611 934 
Q 4013 1447 4013 2328 
Q 4013 3213 3611 3725 
Q 3209 4238 2522 4238 
z
M 2522 4750 
Q 3503 4750 4090 4092 
Q 4678 3434 4678 2328 
Q 4678 1225 4090 567 
Q 3503 -91 2522 -91 
Q 1538 -91 948 565 
Q 359 1222 359 2328 
Q 359 3434 948 4092 
Q 1538 4750 2522 4750 
z
" transform="scale(0.015625)"/>
        <path id="DejaVuSans-63" d="M 3122 3366 
L 3122 2828 
Q 2878 2963 2633 3030 
Q 2388 3097 2138 3097 
Q 1578 3097 1268 2742 
Q 959 2388 959 1747 
Q 959 1106 1268 751 
Q 1578 397 2138 397 
Q 2388 397 2633 464 
Q 2878 531 3122 666 
L 3122 134 
Q 2881 22 2623 -34 
Q 2366 -91 2075 -91 
Q 1284 -91 818 406 
Q 353 903 353 1747 
Q 353 2603 823 3093 
Q 1294 3584 2113 3584 
Q 2378 3584 2631 3529 
Q 2884 3475 3122 3366 
z
" transform="scale(0.015625)"/>
        <path id="DejaVuSans-74" d="M 1172 4494 
L 1172 3500 
L 2356 3500 
L 2356 3053 
L 1172 3053 
L 1172 1153 
Q 1172 725 1289 603 
Q 1406 481 1766 481 
L 2356 481 
L 2356 0 
L 1766 0 
Q 1100 0 847 248 
Q 594 497 594 1153 
L 594 3053 
L 172 3053 
L 172 3500 
L 594 3500 
L 594 4494 
L 1172 4494 
z
" transform="scale(0.015625)"/>
       </defs>
       <use xlink:href="#DejaVuSans-4f"/>
       <use xlink:href="#DejaVuSans-63" transform="translate(78.710938 0)"/>
       <use xlink:href="#DejaVuSans-74" transform="translate(133.691406 0)"/>
       <use xlink:href="#DejaVuSans-20" transform="translate(172.900391 0)"/>
       <use xlink:href="#DejaVuSans-32" transform="translate(204.6875 0)"/>
       <use xlink:href="#DejaVuSans-30" transform="translate(268.310547 0)"/>
       <use xlink:href="#DejaVuSans-32" transform="translate(331.933594 0)"/>
       <use xlink:href="#DejaVuSans-30" transform="translate(395.556641 0)"/>
      </g>
     </g>
    </g>
    <g id="xtick_4">
     <g id="line2d_4">
      <g>
       <use xlink:href="#m8940bb147f" x="209.742687" y="295.342042" style="stroke: #000000; stroke-width: 0.8"/>
      </g>
     </g>
     <g id="text_4">
      <!-- Jan 2021 -->
      <g transform="translate(206.708358 346.851658) rotate(-75) scale(0.1 -0.1)">
       <defs>
        <path id="DejaVuSans-61" d="M 2194 1759 
Q 1497 1759 1228 1600 
Q 959 1441 959 1056 
Q 959 750 1161 570 
Q 1363 391 1709 391 
Q 2188 391 2477 730 
Q 2766 1069 2766 1631 
L 2766 1759 
L 2194 1759 
z
M 3341 1997 
L 3341 0 
L 2766 0 
L 2766 531 
Q 2569 213 2275 61 
Q 1981 -91 1556 -91 
Q 1019 -91 701 211 
Q 384 513 384 1019 
Q 384 1609 779 1909 
Q 1175 2209 1959 2209 
L 2766 2209 
L 2766 2266 
Q 2766 2663 2505 2880 
Q 2244 3097 1772 3097 
Q 1472 3097 1187 3025 
Q 903 2953 641 2809 
L 641 3341 
Q 956 3463 1253 3523 
Q 1550 3584 1831 3584 
Q 2591 3584 2966 3190 
Q 3341 2797 3341 1997 
z
" transform="scale(0.015625)"/>
        <path id="DejaVuSans-6e" d="M 3513 2113 
L 3513 0 
L 2938 0 
L 2938 2094 
Q 2938 2591 2744 2837 
Q 2550 3084 2163 3084 
Q 1697 3084 1428 2787 
Q 1159 2491 1159 1978 
L 1159 0 
L 581 0 
L 581 3500 
L 1159 3500 
L 1159 2956 
Q 1366 3272 1645 3428 
Q 1925 3584 2291 3584 
Q 2894 3584 3203 3211 
Q 3513 2838 3513 2113 
z
" transform="scale(0.015625)"/>
        <path id="DejaVuSans-31" d="M 794 531 
L 1825 531 
L 1825 4091 
L 703 3866 
L 703 4441 
L 1819 4666 
L 2450 4666 
L 2450 531 
L 3481 531 
L 3481 0 
L 794 0 
L 794 531 
z
" transform="scale(0.015625)"/>
       </defs>
       <use xlink:href="#DejaVuSans-4a"/>
       <use xlink:href="#DejaVuSans-61" transform="translate(29.492188 0)"/>
       <use xlink:href="#DejaVuSans-6e" transform="translate(90.771484 0)"/>
       <use xlink:href="#DejaVuSans-20" transform="translate(154.150391 0)"/>
       <use xlink:href="#DejaVuSans-32" transform="translate(185.9375 0)"/>
       <use xlink:href="#DejaVuSans-30" transform="translate(249.560547 0)"/>
       <use xlink:href="#DejaVuSans-32" transform="translate(313.183594 0)"/>
       <use xlink:href="#DejaVuSans-31" transform="translate(376.806641 0)"/>
      </g>
     </g>
    </g>
    <g id="xtick_5">
     <g id="line2d_5">
      <g>
       <use xlink:href="#m8940bb147f" x="244.576206" y="295.342042" style="stroke: #000000; stroke-width: 0.8"/>
      </g>
     </g>
     <g id="text_5">
      <!-- Apr 2021 -->
      <g transform="translate(241.298021 348.671824) rotate(-75) scale(0.1 -0.1)">
       <use xlink:href="#DejaVuSans-41"/>
       <use xlink:href="#DejaVuSans-70" transform="translate(68.408203 0)"/>
       <use xlink:href="#DejaVuSans-72" transform="translate(131.884766 0)"/>
       <use xlink:href="#DejaVuSans-20" transform="translate(172.998047 0)"/>
       <use xlink:href="#DejaVuSans-32" transform="translate(204.785156 0)"/>
       <use xlink:href="#DejaVuSans-30" transform="translate(268.408203 0)"/>
       <use xlink:href="#DejaVuSans-32" transform="translate(332.03125 0)"/>
       <use xlink:href="#DejaVuSans-31" transform="translate(395.654297 0)"/>
      </g>
     </g>
    </g>
    <g id="xtick_6">
     <g id="line2d_6">
      <g>
       <use xlink:href="#m8940bb147f" x="279.796763" y="295.342042" style="stroke: #000000; stroke-width: 0.8"/>
      </g>
     </g>
     <g id="text_6">
      <!-- Jul 2021 -->
      <g transform="translate(277.195956 343.615806) rotate(-75) scale(0.1 -0.1)">
       <use xlink:href="#DejaVuSans-4a"/>
       <use xlink:href="#DejaVuSans-75" transform="translate(29.492188 0)"/>
       <use xlink:href="#DejaVuSans-6c" transform="translate(92.871094 0)"/>
       <use xlink:href="#DejaVuSans-20" transform="translate(120.654297 0)"/>
       <use xlink:href="#DejaVuSans-32" transform="translate(152.441406 0)"/>
       <use xlink:href="#DejaVuSans-30" transform="translate(216.064453 0)"/>
       <use xlink:href="#DejaVuSans-32" transform="translate(279.6875 0)"/>
       <use xlink:href="#DejaVuSans-31" transform="translate(343.310547 0)"/>
      </g>
     </g>
    </g>
    <g id="xtick_7">
     <g id="line2d_7">
      <g>
       <use xlink:href="#m8940bb147f" x="315.404359" y="295.342042" style="stroke: #000000; stroke-width: 0.8"/>
      </g>
     </g>
     <g id="text_7">
      <!-- Oct 2021 -->
      <g transform="translate(312.127388 348.662769) rotate(-75) scale(0.1 -0.1)">
       <use xlink:href="#DejaVuSans-4f"/>
       <use xlink:href="#DejaVuSans-63" transform="translate(78.710938 0)"/>
       <use xlink:href="#DejaVuSans-74" transform="translate(133.691406 0)"/>
       <use xlink:href="#DejaVuSans-20" transform="translate(172.900391 0)"/>
       <use xlink:href="#DejaVuSans-32" transform="translate(204.6875 0)"/>
       <use xlink:href="#DejaVuSans-30" transform="translate(268.310547 0)"/>
       <use xlink:href="#DejaVuSans-32" transform="translate(331.933594 0)"/>
       <use xlink:href="#DejaVuSans-31" transform="translate(395.556641 0)"/>
      </g>
     </g>
    </g>
    <g id="xtick_8">
     <g id="line2d_8">
      <g>
       <use xlink:href="#m8940bb147f" x="351.011956" y="295.342042" style="stroke: #000000; stroke-width: 0.8"/>
      </g>
     </g>
     <g id="text_8">
      <!-- Jan 2022 -->
      <g transform="translate(347.977627 346.851658) rotate(-75) scale(0.1 -0.1)">
       <use xlink:href="#DejaVuSans-4a"/>
       <use xlink:href="#DejaVuSans-61" transform="translate(29.492188 0)"/>
       <use xlink:href="#DejaVuSans-6e" transform="translate(90.771484 0)"/>
       <use xlink:href="#DejaVuSans-20" transform="translate(154.150391 0)"/>
       <use xlink:href="#DejaVuSans-32" transform="translate(185.9375 0)"/>
       <use xlink:href="#DejaVuSans-30" transform="translate(249.560547 0)"/>
       <use xlink:href="#DejaVuSans-32" transform="translate(313.183594 0)"/>
       <use xlink:href="#DejaVuSans-32" transform="translate(376.806641 0)"/>
      </g>
     </g>
    </g>
    <g id="xtick_9">
     <g id="line2d_9">
      <g>
       <use xlink:href="#m8940bb147f" x="385.845474" y="295.342042" style="stroke: #000000; stroke-width: 0.8"/>
      </g>
     </g>
     <g id="text_9">
      <!-- Apr 2022 -->
      <g transform="translate(382.567289 348.671824) rotate(-75) scale(0.1 -0.1)">
       <use xlink:href="#DejaVuSans-41"/>
       <use xlink:href="#DejaVuSans-70" transform="translate(68.408203 0)"/>
       <use xlink:href="#DejaVuSans-72" transform="translate(131.884766 0)"/>
       <use xlink:href="#DejaVuSans-20" transform="translate(172.998047 0)"/>
       <use xlink:href="#DejaVuSans-32" transform="translate(204.785156 0)"/>
       <use xlink:href="#DejaVuSans-30" transform="translate(268.408203 0)"/>
       <use xlink:href="#DejaVuSans-32" transform="translate(332.03125 0)"/>
       <use xlink:href="#DejaVuSans-32" transform="translate(395.654297 0)"/>
      </g>
     </g>
    </g>
    <g id="xtick_10">
     <g id="line2d_10">
      <g>
       <use xlink:href="#m8940bb147f" x="421.066031" y="295.342042" style="stroke: #000000; stroke-width: 0.8"/>
      </g>
     </g>
     <g id="text_10">
      <!-- Jul 2022 -->
      <g transform="translate(418.465224 343.615806) rotate(-75) scale(0.1 -0.1)">
       <use xlink:href="#DejaVuSans-4a"/>
       <use xlink:href="#DejaVuSans-75" transform="translate(29.492188 0)"/>
       <use xlink:href="#DejaVuSans-6c" transform="translate(92.871094 0)"/>
       <use xlink:href="#DejaVuSans-20" transform="translate(120.654297 0)"/>
       <use xlink:href="#DejaVuSans-32" transform="translate(152.441406 0)"/>
       <use xlink:href="#DejaVuSans-30" transform="translate(216.064453 0)"/>
       <use xlink:href="#DejaVuSans-32" transform="translate(279.6875 0)"/>
       <use xlink:href="#DejaVuSans-32" transform="translate(343.310547 0)"/>
      </g>
     </g>
    </g>
    <g id="xtick_11">
     <g id="line2d_11">
      <g>
       <use xlink:href="#m8940bb147f" x="456.673628" y="295.342042" style="stroke: #000000; stroke-width: 0.8"/>
      </g>
     </g>
     <g id="text_11">
      <!-- Oct 2022 -->
      <g transform="translate(453.396656 348.662769) rotate(-75) scale(0.1 -0.1)">
       <use xlink:href="#DejaVuSans-4f"/>
       <use xlink:href="#DejaVuSans-63" transform="translate(78.710938 0)"/>
       <use xlink:href="#DejaVuSans-74" transform="translate(133.691406 0)"/>
       <use xlink:href="#DejaVuSans-20" transform="translate(172.900391 0)"/>
       <use xlink:href="#DejaVuSans-32" transform="translate(204.6875 0)"/>
       <use xlink:href="#DejaVuSans-30" transform="translate(268.310547 0)"/>
       <use xlink:href="#DejaVuSans-32" transform="translate(331.933594 0)"/>
       <use xlink:href="#DejaVuSans-32" transform="translate(395.556641 0)"/>
      </g>
     </g>
    </g>
    <g id="xtick_12">
     <g id="line2d_12">
      <g>
       <use xlink:href="#m8940bb147f" x="492.281224" y="295.342042" style="stroke: #000000; stroke-width: 0.8"/>
      </g>
     </g>
     <g id="text_12">
      <!-- Jan 2023 -->
      <g transform="translate(489.246895 346.851658) rotate(-75) scale(0.1 -0.1)">
       <defs>
        <path id="DejaVuSans-33" d="M 2597 2516 
Q 3050 2419 3304 2112 
Q 3559 1806 3559 1356 
Q 3559 666 3084 287 
Q 2609 -91 1734 -91 
Q 1441 -91 1130 -33 
Q 819 25 488 141 
L 488 750 
Q 750 597 1062 519 
Q 1375 441 1716 441 
Q 2309 441 2620 675 
Q 2931 909 2931 1356 
Q 2931 1769 2642 2001 
Q 2353 2234 1838 2234 
L 1294 2234 
L 1294 2753 
L 1863 2753 
Q 2328 2753 2575 2939 
Q 2822 3125 2822 3475 
Q 2822 3834 2567 4026 
Q 2313 4219 1838 4219 
Q 1578 4219 1281 4162 
Q 984 4106 628 3988 
L 628 4550 
Q 988 4650 1302 4700 
Q 1616 4750 1894 4750 
Q 2613 4750 3031 4423 
Q 3450 4097 3450 3541 
Q 3450 3153 3228 2886 
Q 3006 2619 2597 2516 
z
" transform="scale(0.015625)"/>
       </defs>
       <use xlink:href="#DejaVuSans-4a"/>
       <use xlink:href="#DejaVuSans-61" transform="translate(29.492188 0)"/>
       <use xlink:href="#DejaVuSans-6e" transform="translate(90.771484 0)"/>
       <use xlink:href="#DejaVuSans-20" transform="translate(154.150391 0)"/>
       <use xlink:href="#DejaVuSans-32" transform="translate(185.9375 0)"/>
       <use xlink:href="#DejaVuSans-30" transform="translate(249.560547 0)"/>
       <use xlink:href="#DejaVuSans-32" transform="translate(313.183594 0)"/>
       <use xlink:href="#DejaVuSans-33" transform="translate(376.806641 0)"/>
      </g>
     </g>
    </g>
    <g id="xtick_13">
     <g id="line2d_13">
      <g>
       <use xlink:href="#m8940bb147f" x="527.114743" y="295.342042" style="stroke: #000000; stroke-width: 0.8"/>
      </g>
     </g>
     <g id="text_13">
      <!-- Apr 2023 -->
      <g transform="translate(523.836557 348.671824) rotate(-75) scale(0.1 -0.1)">
       <use xlink:href="#DejaVuSans-41"/>
       <use xlink:href="#DejaVuSans-70" transform="translate(68.408203 0)"/>
       <use xlink:href="#DejaVuSans-72" transform="translate(131.884766 0)"/>
       <use xlink:href="#DejaVuSans-20" transform="translate(172.998047 0)"/>
       <use xlink:href="#DejaVuSans-32" transform="translate(204.785156 0)"/>
       <use xlink:href="#DejaVuSans-30" transform="translate(268.408203 0)"/>
       <use xlink:href="#DejaVuSans-32" transform="translate(332.03125 0)"/>
       <use xlink:href="#DejaVuSans-33" transform="translate(395.654297 0)"/>
      </g>
     </g>
    </g>
    <g id="xtick_14">
     <g id="line2d_14">
      <g>
       <use xlink:href="#m8940bb147f" x="562.3353" y="295.342042" style="stroke: #000000; stroke-width: 0.8"/>
      </g>
     </g>
     <g id="text_14">
      <!-- Jul 2023 -->
      <g transform="translate(559.734493 343.615806) rotate(-75) scale(0.1 -0.1)">
       <use xlink:href="#DejaVuSans-4a"/>
       <use xlink:href="#DejaVuSans-75" transform="translate(29.492188 0)"/>
       <use xlink:href="#DejaVuSans-6c" transform="translate(92.871094 0)"/>
       <use xlink:href="#DejaVuSans-20" transform="translate(120.654297 0)"/>
       <use xlink:href="#DejaVuSans-32" transform="translate(152.441406 0)"/>
       <use xlink:href="#DejaVuSans-30" transform="translate(216.064453 0)"/>
       <use xlink:href="#DejaVuSans-32" transform="translate(279.6875 0)"/>
       <use xlink:href="#DejaVuSans-33" transform="translate(343.310547 0)"/>
      </g>
     </g>
    </g>
    <g id="xtick_15">
     <g id="line2d_15">
      <g>
       <use xlink:href="#m8940bb147f" x="597.942896" y="295.342042" style="stroke: #000000; stroke-width: 0.8"/>
      </g>
     </g>
     <g id="text_15">
      <!-- Oct 2023 -->
      <g transform="translate(594.665924 348.662769) rotate(-75) scale(0.1 -0.1)">
       <use xlink:href="#DejaVuSans-4f"/>
       <use xlink:href="#DejaVuSans-63" transform="translate(78.710938 0)"/>
       <use xlink:href="#DejaVuSans-74" transform="translate(133.691406 0)"/>
       <use xlink:href="#DejaVuSans-20" transform="translate(172.900391 0)"/>
       <use xlink:href="#DejaVuSans-32" transform="translate(204.6875 0)"/>
       <use xlink:href="#DejaVuSans-30" transform="translate(268.310547 0)"/>
       <use xlink:href="#DejaVuSans-32" transform="translate(331.933594 0)"/>
       <use xlink:href="#DejaVuSans-33" transform="translate(395.556641 0)"/>
      </g>
     </g>
    </g>
    <g id="xtick_16">
     <g id="line2d_16">
      <g>
       <use xlink:href="#m8940bb147f" x="633.550493" y="295.342042" style="stroke: #000000; stroke-width: 0.8"/>
      </g>
     </g>
     <g id="text_16">
      <!-- Jan 2024 -->
      <g transform="translate(630.516164 346.851658) rotate(-75) scale(0.1 -0.1)">
       <defs>
        <path id="DejaVuSans-34" d="M 2419 4116 
L 825 1625 
L 2419 1625 
L 2419 4116 
z
M 2253 4666 
L 3047 4666 
L 3047 1625 
L 3713 1625 
L 3713 1100 
L 3047 1100 
L 3047 0 
L 2419 0 
L 2419 1100 
L 313 1100 
L 313 1709 
L 2253 4666 
z
" transform="scale(0.015625)"/>
       </defs>
       <use xlink:href="#DejaVuSans-4a"/>
       <use xlink:href="#DejaVuSans-61" transform="translate(29.492188 0)"/>
       <use xlink:href="#DejaVuSans-6e" transform="translate(90.771484 0)"/>
       <use xlink:href="#DejaVuSans-20" transform="translate(154.150391 0)"/>
       <use xlink:href="#DejaVuSans-32" transform="translate(185.9375 0)"/>
       <use xlink:href="#DejaVuSans-30" transform="translate(249.560547 0)"/>
       <use xlink:href="#DejaVuSans-32" transform="translate(313.183594 0)"/>
       <use xlink:href="#DejaVuSans-34" transform="translate(376.806641 0)"/>
      </g>
     </g>
    </g>
   </g>
   <g id="matplotlib.axis_2">
    <g id="ytick_1">
     <g id="line2d_17">
      <defs>
       <path id="mcea598032d" d="M 0 0 
L -3.5 0 
" style="stroke: #000000; stroke-width: 0.8"/>
      </defs>
      <g>
       <use xlink:href="#mcea598032d" x="69.77" y="295.342042" style="stroke: #000000; stroke-width: 0.8"/>
      </g>
     </g>
     <g id="text_17">
      <!-- 0 -->
      <g transform="translate(56.4075 299.141261) scale(0.1 -0.1)">
       <use xlink:href="#DejaVuSans-30"/>
      </g>
     </g>
    </g>
    <g id="ytick_2">
     <g id="line2d_18">
      <g>
       <use xlink:href="#mcea598032d" x="69.77" y="240.089751" style="stroke: #000000; stroke-width: 0.8"/>
      </g>
     </g>
     <g id="text_18">
      <!-- 50000 -->
      <g transform="translate(30.9575 243.88897) scale(0.1 -0.1)">
       <defs>
        <path id="DejaVuSans-35" d="M 691 4666 
L 3169 4666 
L 3169 4134 
L 1269 4134 
L 1269 2991 
Q 1406 3038 1543 3061 
Q 1681 3084 1819 3084 
Q 2600 3084 3056 2656 
Q 3513 2228 3513 1497 
Q 3513 744 3044 326 
Q 2575 -91 1722 -91 
Q 1428 -91 1123 -41 
Q 819 9 494 109 
L 494 744 
Q 775 591 1075 516 
Q 1375 441 1709 441 
Q 2250 441 2565 725 
Q 2881 1009 2881 1497 
Q 2881 1984 2565 2268 
Q 2250 2553 1709 2553 
Q 1456 2553 1204 2497 
Q 953 2441 691 2322 
L 691 4666 
z
" transform="scale(0.015625)"/>
       </defs>
       <use xlink:href="#DejaVuSans-35"/>
       <use xlink:href="#DejaVuSans-30" transform="translate(63.623047 0)"/>
       <use xlink:href="#DejaVuSans-30" transform="translate(127.246094 0)"/>
       <use xlink:href="#DejaVuSans-30" transform="translate(190.869141 0)"/>
       <use xlink:href="#DejaVuSans-30" transform="translate(254.492188 0)"/>
      </g>
     </g>
    </g>
    <g id="ytick_3">
     <g id="line2d_19">
      <g>
       <use xlink:href="#mcea598032d" x="69.77" y="184.83746" style="stroke: #000000; stroke-width: 0.8"/>
      </g>
     </g>
     <g id="text_19">
      <!-- 100000 -->
      <g transform="translate(24.595 188.636679) scale(0.1 -0.1)">
       <use xlink:href="#DejaVuSans-31"/>
       <use xlink:href="#DejaVuSans-30" transform="translate(63.623047 0)"/>
       <use xlink:href="#DejaVuSans-30" transform="translate(127.246094 0)"/>
       <use xlink:href="#DejaVuSans-30" transform="translate(190.869141 0)"/>
       <use xlink:href="#DejaVuSans-30" transform="translate(254.492188 0)"/>
       <use xlink:href="#DejaVuSans-30" transform="translate(318.115234 0)"/>
      </g>
     </g>
    </g>
    <g id="ytick_4">
     <g id="line2d_20">
      <g>
       <use xlink:href="#mcea598032d" x="69.77" y="129.585169" style="stroke: #000000; stroke-width: 0.8"/>
      </g>
     </g>
     <g id="text_20">
      <!-- 150000 -->
      <g transform="translate(24.595 133.384387) scale(0.1 -0.1)">
       <use xlink:href="#DejaVuSans-31"/>
       <use xlink:href="#DejaVuSans-35" transform="translate(63.623047 0)"/>
       <use xlink:href="#DejaVuSans-30" transform="translate(127.246094 0)"/>
       <use xlink:href="#DejaVuSans-30" transform="translate(190.869141 0)"/>
       <use xlink:href="#DejaVuSans-30" transform="translate(254.492188 0)"/>
       <use xlink:href="#DejaVuSans-30" transform="translate(318.115234 0)"/>
      </g>
     </g>
    </g>
    <g id="ytick_5">
     <g id="line2d_21">
      <g>
       <use xlink:href="#mcea598032d" x="69.77" y="74.332878" style="stroke: #000000; stroke-width: 0.8"/>
      </g>
     </g>
     <g id="text_21">
      <!-- 200000 -->
      <g transform="translate(24.595 78.132096) scale(0.1 -0.1)">
       <use xlink:href="#DejaVuSans-32"/>
       <use xlink:href="#DejaVuSans-30" transform="translate(63.623047 0)"/>
       <use xlink:href="#DejaVuSans-30" transform="translate(127.246094 0)"/>
       <use xlink:href="#DejaVuSans-30" transform="translate(190.869141 0)"/>
       <use xlink:href="#DejaVuSans-30" transform="translate(254.492188 0)"/>
       <use xlink:href="#DejaVuSans-30" transform="translate(318.115234 0)"/>
      </g>
     </g>
    </g>
    <g id="text_22">
     <!-- Confirmed cases -->
     <g transform="translate(18.515313 202.757115) rotate(-90) scale(0.1 -0.1)">
      <defs>
       <path id="DejaVuSans-43" d="M 4122 4306 
L 4122 3641 
Q 3803 3938 3442 4084 
Q 3081 4231 2675 4231 
Q 1875 4231 1450 3742 
Q 1025 3253 1025 2328 
Q 1025 1406 1450 917 
Q 1875 428 2675 428 
Q 3081 428 3442 575 
Q 3803 722 4122 1019 
L 4122 359 
Q 3791 134 3420 21 
Q 3050 -91 2638 -91 
Q 1578 -91 968 557 
Q 359 1206 359 2328 
Q 359 3453 968 4101 
Q 1578 4750 2638 4750 
Q 3056 4750 3426 4639 
Q 3797 4528 4122 4306 
z
" transform="scale(0.015625)"/>
       <path id="DejaVuSans-6f" d="M 1959 3097 
Q 1497 3097 1228 2736 
Q 959 2375 959 1747 
Q 959 1119 1226 758 
Q 1494 397 1959 397 
Q 2419 397 2687 759 
Q 2956 1122 2956 1747 
Q 2956 2369 2687 2733 
Q 2419 3097 1959 3097 
z
M 1959 3584 
Q 2709 3584 3137 3096 
Q 3566 2609 3566 1747 
Q 3566 888 3137 398 
Q 2709 -91 1959 -91 
Q 1206 -91 779 398 
Q 353 888 353 1747 
Q 353 2609 779 3096 
Q 1206 3584 1959 3584 
z
" transform="scale(0.015625)"/>
       <path id="DejaVuSans-66" d="M 2375 4863 
L 2375 4384 
L 1825 4384 
Q 1516 4384 1395 4259 
Q 1275 4134 1275 3809 
L 1275 3500 
L 2222 3500 
L 2222 3053 
L 1275 3053 
L 1275 0 
L 697 0 
L 697 3053 
L 147 3053 
L 147 3500 
L 697 3500 
L 697 3744 
Q 697 4328 969 4595 
Q 1241 4863 1831 4863 
L 2375 4863 
z
" transform="scale(0.015625)"/>
       <path id="DejaVuSans-69" d="M 603 3500 
L 1178 3500 
L 1178 0 
L 603 0 
L 603 3500 
z
M 603 4863 
L 1178 4863 
L 1178 4134 
L 603 4134 
L 603 4863 
z
" transform="scale(0.015625)"/>
       <path id="DejaVuSans-6d" d="M 3328 2828 
Q 3544 3216 3844 3400 
Q 4144 3584 4550 3584 
Q 5097 3584 5394 3201 
Q 5691 2819 5691 2113 
L 5691 0 
L 5113 0 
L 5113 2094 
Q 5113 2597 4934 2840 
Q 4756 3084 4391 3084 
Q 3944 3084 3684 2787 
Q 3425 2491 3425 1978 
L 3425 0 
L 2847 0 
L 2847 2094 
Q 2847 2600 2669 2842 
Q 2491 3084 2119 3084 
Q 1678 3084 1418 2786 
Q 1159 2488 1159 1978 
L 1159 0 
L 581 0 
L 581 3500 
L 1159 3500 
L 1159 2956 
Q 1356 3278 1631 3431 
Q 1906 3584 2284 3584 
Q 2666 3584 2933 3390 
Q 3200 3197 3328 2828 
z
" transform="scale(0.015625)"/>
       <path id="DejaVuSans-65" d="M 3597 1894 
L 3597 1613 
L 953 1613 
Q 991 1019 1311 708 
Q 1631 397 2203 397 
Q 2534 397 2845 478 
Q 3156 559 3463 722 
L 3463 178 
Q 3153 47 2828 -22 
Q 2503 -91 2169 -91 
Q 1331 -91 842 396 
Q 353 884 353 1716 
Q 353 2575 817 3079 
Q 1281 3584 2069 3584 
Q 2775 3584 3186 3129 
Q 3597 2675 3597 1894 
z
M 3022 2063 
Q 3016 2534 2758 2815 
Q 2500 3097 2075 3097 
Q 1594 3097 1305 2825 
Q 1016 2553 972 2059 
L 3022 2063 
z
" transform="scale(0.015625)"/>
       <path id="DejaVuSans-64" d="M 2906 2969 
L 2906 4863 
L 3481 4863 
L 3481 0 
L 2906 0 
L 2906 525 
Q 2725 213 2448 61 
Q 2172 -91 1784 -91 
Q 1150 -91 751 415 
Q 353 922 353 1747 
Q 353 2572 751 3078 
Q 1150 3584 1784 3584 
Q 2172 3584 2448 3432 
Q 2725 3281 2906 2969 
z
M 947 1747 
Q 947 1113 1208 752 
Q 1469 391 1925 391 
Q 2381 391 2643 752 
Q 2906 1113 2906 1747 
Q 2906 2381 2643 2742 
Q 2381 3103 1925 3103 
Q 1469 3103 1208 2742 
Q 947 2381 947 1747 
z
" transform="scale(0.015625)"/>
       <path id="DejaVuSans-73" d="M 2834 3397 
L 2834 2853 
Q 2591 2978 2328 3040 
Q 2066 3103 1784 3103 
Q 1356 3103 1142 2972 
Q 928 2841 928 2578 
Q 928 2378 1081 2264 
Q 1234 2150 1697 2047 
L 1894 2003 
Q 2506 1872 2764 1633 
Q 3022 1394 3022 966 
Q 3022 478 2636 193 
Q 2250 -91 1575 -91 
Q 1294 -91 989 -36 
Q 684 19 347 128 
L 347 722 
Q 666 556 975 473 
Q 1284 391 1588 391 
Q 1994 391 2212 530 
Q 2431 669 2431 922 
Q 2431 1156 2273 1281 
Q 2116 1406 1581 1522 
L 1381 1569 
Q 847 1681 609 1914 
Q 372 2147 372 2553 
Q 372 3047 722 3315 
Q 1072 3584 1716 3584 
Q 2034 3584 2315 3537 
Q 2597 3491 2834 3397 
z
" transform="scale(0.015625)"/>
      </defs>
      <use xlink:href="#DejaVuSans-43"/>
      <use xlink:href="#DejaVuSans-6f" transform="translate(69.824219 0)"/>
      <use xlink:href="#DejaVuSans-6e" transform="translate(131.005859 0)"/>
      <use xlink:href="#DejaVuSans-66" transform="translate(194.384766 0)"/>
      <use xlink:href="#DejaVuSans-69" transform="translate(229.589844 0)"/>
      <use xlink:href="#DejaVuSans-72" transform="translate(257.373047 0)"/>
      <use xlink:href="#DejaVuSans-6d" transform="translate(296.736328 0)"/>
      <use xlink:href="#DejaVuSans-65" transform="translate(394.148438 0)"/>
      <use xlink:href="#DejaVuSans-64" transform="translate(455.671875 0)"/>
      <use xlink:href="#DejaVuSans-20" transform="translate(519.148438 0)"/>
      <use xlink:href="#DejaVuSans-63" transform="translate(550.935547 0)"/>
      <use xlink:href="#DejaVuSans-61" transform="translate(605.916016 0)"/>
      <use xlink:href="#DejaVuSans-73" transform="translate(667.195312 0)"/>
      <use xlink:href="#DejaVuSans-65" transform="translate(719.294922 0)"/>
      <use xlink:href="#DejaVuSans-73" transform="translate(780.818359 0)"/>
     </g>
    </g>
   </g>
   <g id="patch_3">
    <path d="M 69.77 295.342042 
L 69.77 26.88 
" style="fill: none; stroke: #000000; stroke-width: 0.8; stroke-linejoin: miter; stroke-linecap: square"/>
   </g>
   <g id="patch_4">
    <path d="M 662.83 295.342042 
L 662.83 26.88 
" style="fill: none; stroke: #000000; stroke-width: 0.8; stroke-linejoin: miter; stroke-linecap: square"/>
   </g>
   <g id="patch_5">
    <path d="M 69.77 295.342042 
L 662.83 295.342042 
" style="fill: none; stroke: #000000; stroke-width: 0.8; stroke-linejoin: miter; stroke-linecap: square"/>
   </g>
   <g id="patch_6">
    <path d="M 69.77 26.88 
L 662.83 26.88 
" style="fill: none; stroke: #000000; stroke-width: 0.8; stroke-linejoin: miter; stroke-linecap: square"/>
   </g>
   <g id="text_23">
    <!-- Weekly confirmed Covid-19 cases and deaths: Ukraine -->
    <g transform="translate(202.39875 20.88) scale(0.12 -0.12)">
     <defs>
      <path id="DejaVuSans-57" d="M 213 4666 
L 850 4666 
L 1831 722 
L 2809 4666 
L 3519 4666 
L 4500 722 
L 5478 4666 
L 6119 4666 
L 4947 0 
L 4153 0 
L 3169 4050 
L 2175 0 
L 1381 0 
L 213 4666 
z
" transform="scale(0.015625)"/>
      <path id="DejaVuSans-6b" d="M 581 4863 
L 1159 4863 
L 1159 1991 
L 2875 3500 
L 3609 3500 
L 1753 1863 
L 3688 0 
L 2938 0 
L 1159 1709 
L 1159 0 
L 581 0 
L 581 4863 
z
" transform="scale(0.015625)"/>
      <path id="DejaVuSans-79" d="M 2059 -325 
Q 1816 -950 1584 -1140 
Q 1353 -1331 966 -1331 
L 506 -1331 
L 506 -850 
L 844 -850 
Q 1081 -850 1212 -737 
Q 1344 -625 1503 -206 
L 1606 56 
L 191 3500 
L 800 3500 
L 1894 763 
L 2988 3500 
L 3597 3500 
L 2059 -325 
z
" transform="scale(0.015625)"/>
      <path id="DejaVuSans-76" d="M 191 3500 
L 800 3500 
L 1894 563 
L 2988 3500 
L 3597 3500 
L 2284 0 
L 1503 0 
L 191 3500 
z
" transform="scale(0.015625)"/>
      <path id="DejaVuSans-2d" d="M 313 2009 
L 1997 2009 
L 1997 1497 
L 313 1497 
L 313 2009 
z
" transform="scale(0.015625)"/>
      <path id="DejaVuSans-39" d="M 703 97 
L 703 672 
Q 941 559 1184 500 
Q 1428 441 1663 441 
Q 2288 441 2617 861 
Q 2947 1281 2994 2138 
Q 2813 1869 2534 1725 
Q 2256 1581 1919 1581 
Q 1219 1581 811 2004 
Q 403 2428 403 3163 
Q 403 3881 828 4315 
Q 1253 4750 1959 4750 
Q 2769 4750 3195 4129 
Q 3622 3509 3622 2328 
Q 3622 1225 3098 567 
Q 2575 -91 1691 -91 
Q 1453 -91 1209 -44 
Q 966 3 703 97 
z
M 1959 2075 
Q 2384 2075 2632 2365 
Q 2881 2656 2881 3163 
Q 2881 3666 2632 3958 
Q 2384 4250 1959 4250 
Q 1534 4250 1286 3958 
Q 1038 3666 1038 3163 
Q 1038 2656 1286 2365 
Q 1534 2075 1959 2075 
z
" transform="scale(0.015625)"/>
      <path id="DejaVuSans-68" d="M 3513 2113 
L 3513 0 
L 2938 0 
L 2938 2094 
Q 2938 2591 2744 2837 
Q 2550 3084 2163 3084 
Q 1697 3084 1428 2787 
Q 1159 2491 1159 1978 
L 1159 0 
L 581 0 
L 581 4863 
L 1159 4863 
L 1159 2956 
Q 1366 3272 1645 3428 
Q 1925 3584 2291 3584 
Q 2894 3584 3203 3211 
Q 3513 2838 3513 2113 
z
" transform="scale(0.015625)"/>
      <path id="DejaVuSans-3a" d="M 750 794 
L 1409 794 
L 1409 0 
L 750 0 
L 750 794 
z
M 750 3309 
L 1409 3309 
L 1409 2516 
L 750 2516 
L 750 3309 
z
" transform="scale(0.015625)"/>
      <path id="DejaVuSans-55" d="M 556 4666 
L 1191 4666 
L 1191 1831 
Q 1191 1081 1462 751 
Q 1734 422 2344 422 
Q 2950 422 3222 751 
Q 3494 1081 3494 1831 
L 3494 4666 
L 4128 4666 
L 4128 1753 
Q 4128 841 3676 375 
Q 3225 -91 2344 -91 
Q 1459 -91 1007 375 
Q 556 841 556 1753 
L 556 4666 
z
" transform="scale(0.015625)"/>
     </defs>
     <use xlink:href="#DejaVuSans-57"/>
     <use xlink:href="#DejaVuSans-65" transform="translate(93.001953 0)"/>
     <use xlink:href="#DejaVuSans-65" transform="translate(154.525391 0)"/>
     <use xlink:href="#DejaVuSans-6b" transform="translate(216.048828 0)"/>
     <use xlink:href="#DejaVuSans-6c" transform="translate(273.958984 0)"/>
     <use xlink:href="#DejaVuSans-79" transform="translate(301.742188 0)"/>
     <use xlink:href="#DejaVuSans-20" transform="translate(360.921875 0)"/>
     <use xlink:href="#DejaVuSans-63" transform="translate(392.708984 0)"/>
     <use xlink:href="#DejaVuSans-6f" transform="translate(447.689453 0)"/>
     <use xlink:href="#DejaVuSans-6e" transform="translate(508.871094 0)"/>
     <use xlink:href="#DejaVuSans-66" transform="translate(572.25 0)"/>
     <use xlink:href="#DejaVuSans-69" transform="translate(607.455078 0)"/>
     <use xlink:href="#DejaVuSans-72" transform="translate(635.238281 0)"/>
     <use xlink:href="#DejaVuSans-6d" transform="translate(674.601562 0)"/>
     <use xlink:href="#DejaVuSans-65" transform="translate(772.013672 0)"/>
     <use xlink:href="#DejaVuSans-64" transform="translate(833.537109 0)"/>
     <use xlink:href="#DejaVuSans-20" transform="translate(897.013672 0)"/>
     <use xlink:href="#DejaVuSans-43" transform="translate(928.800781 0)"/>
     <use xlink:href="#DejaVuSans-6f" transform="translate(998.625 0)"/>
     <use xlink:href="#DejaVuSans-76" transform="translate(1059.806641 0)"/>
     <use xlink:href="#DejaVuSans-69" transform="translate(1118.986328 0)"/>
     <use xlink:href="#DejaVuSans-64" transform="translate(1146.769531 0)"/>
     <use xlink:href="#DejaVuSans-2d" transform="translate(1210.246094 0)"/>
     <use xlink:href="#DejaVuSans-31" transform="translate(1246.330078 0)"/>
     <use xlink:href="#DejaVuSans-39" transform="translate(1309.953125 0)"/>
     <use xlink:href="#DejaVuSans-20" transform="translate(1373.576172 0)"/>
     <use xlink:href="#DejaVuSans-63" transform="translate(1405.363281 0)"/>
     <use xlink:href="#DejaVuSans-61" transform="translate(1460.34375 0)"/>
     <use xlink:href="#DejaVuSans-73" transform="translate(1521.623047 0)"/>
     <use xlink:href="#DejaVuSans-65" transform="translate(1573.722656 0)"/>
     <use xlink:href="#DejaVuSans-73" transform="translate(1635.246094 0)"/>
     <use xlink:href="#DejaVuSans-20" transform="translate(1687.345703 0)"/>
     <use xlink:href="#DejaVuSans-61" transform="translate(1719.132812 0)"/>
     <use xlink:href="#DejaVuSans-6e" transform="translate(1780.412109 0)"/>
     <use xlink:href="#DejaVuSans-64" transform="translate(1843.791016 0)"/>
     <use xlink:href="#DejaVuSans-20" transform="translate(1907.267578 0)"/>
     <use xlink:href="#DejaVuSans-64" transform="translate(1939.054688 0)"/>
     <use xlink:href="#DejaVuSans-65" transform="translate(2002.53125 0)"/>
     <use xlink:href="#DejaVuSans-61" transform="translate(2064.054688 0)"/>
     <use xlink:href="#DejaVuSans-74" transform="translate(2125.333984 0)"/>
     <use xlink:href="#DejaVuSans-68" transform="translate(2164.542969 0)"/>
     <use xlink:href="#DejaVuSans-73" transform="translate(2227.921875 0)"/>
     <use xlink:href="#DejaVuSans-3a" transform="translate(2280.021484 0)"/>
     <use xlink:href="#DejaVuSans-20" transform="translate(2313.712891 0)"/>
     <use xlink:href="#DejaVuSans-55" transform="translate(2345.5 0)"/>
     <use xlink:href="#DejaVuSans-6b" transform="translate(2418.693359 0)"/>
     <use xlink:href="#DejaVuSans-72" transform="translate(2476.603516 0)"/>
     <use xlink:href="#DejaVuSans-61" transform="translate(2517.716797 0)"/>
     <use xlink:href="#DejaVuSans-69" transform="translate(2578.996094 0)"/>
     <use xlink:href="#DejaVuSans-6e" transform="translate(2606.779297 0)"/>
     <use xlink:href="#DejaVuSans-65" transform="translate(2670.158203 0)"/>
    </g>
   </g>
   <g id="legend_1">
    <g id="patch_7">
     <path d="M 76.77 49.558125 
L 159.20125 49.558125 
Q 161.20125 49.558125 161.20125 47.558125 
L 161.20125 33.88 
Q 161.20125 31.88 159.20125 31.88 
L 76.77 31.88 
Q 74.77 31.88 74.77 33.88 
L 74.77 47.558125 
Q 74.77 49.558125 76.77 49.558125 
z
" style="fill: #ffffff; opacity: 0.8; stroke: #cccccc; stroke-linejoin: miter"/>
    </g>
    <g id="patch_8">
     <path d="M 78.77 43.478438 
L 98.77 43.478438 
L 98.77 36.478438 
L 78.77 36.478438 
z
" style="fill: #0000ff; fill-opacity: 0.5; stroke: #0000ff; stroke-opacity: 0.5; stroke-linejoin: miter"/>
    </g>
    <g id="text_24">
     <!-- confirmed -->
     <g transform="translate(106.77 43.478438) scale(0.1 -0.1)">
      <use xlink:href="#DejaVuSans-63"/>
      <use xlink:href="#DejaVuSans-6f" transform="translate(54.980469 0)"/>
      <use xlink:href="#DejaVuSans-6e" transform="translate(116.162109 0)"/>
      <use xlink:href="#DejaVuSans-66" transform="translate(179.541016 0)"/>
      <use xlink:href="#DejaVuSans-69" transform="translate(214.746094 0)"/>
      <use xlink:href="#DejaVuSans-72" transform="translate(242.529297 0)"/>
      <use xlink:href="#DejaVuSans-6d" transform="translate(281.892578 0)"/>
      <use xlink:href="#DejaVuSans-65" transform="translate(379.304688 0)"/>
      <use xlink:href="#DejaVuSans-64" transform="translate(440.828125 0)"/>
     </g>
    </g>
   </g>
  </g>
  <g id="axes_2">
   <g id="FillBetweenPolyCollection_2">
    <defs>
     <path id="mf0fdfad7b8" d="M 96.727273 -64.657958 
L 96.727273 -64.77491 
L 99.436546 -64.833385 
L 102.14582 -65.125764 
L 104.855094 -66.0029 
L 107.564367 -66.353754 
L 110.273641 -65.827473 
L 112.982915 -67.289366 
L 115.692188 -66.119851 
L 118.401462 -66.996987 
L 121.110735 -67.172414 
L 123.820009 -66.0029 
L 126.529283 -66.587657 
L 129.238556 -66.236803 
L 131.94783 -66.587657 
L 134.657104 -66.996987 
L 137.366377 -68.634307 
L 140.075651 -67.757171 
L 142.784925 -67.932599 
L 145.494198 -67.698696 
L 148.203472 -70.330103 
L 150.912746 -69.27754 
L 153.622019 -72.084375 
L 156.331293 -71.73352 
L 159.040566 -70.622482 
L 161.74984 -77.405666 
L 164.459114 -76.470054 
L 167.168387 -72.669132 
L 169.877661 -83.721044 
L 172.586935 -80.914209 
L 175.296208 -80.914209 
L 178.005482 -90.504227 
L 180.714756 -88.340626 
L 183.424029 -90.679655 
L 186.133303 -118.63105 
L 188.842577 -134.361019 
L 191.55185 -130.735524 
L 194.261124 -145.295979 
L 196.970397 -137.869563 
L 199.679671 -146.874824 
L 202.388945 -153.190202 
L 205.098218 -159.388629 
L 207.807492 -122.081118 
L 210.516766 -137.986514 
L 213.226039 -107.462187 
L 215.935313 -125.121855 
L 218.644587 -126.349845 
L 221.35386 -114.011468 
L 224.063134 -115.882691 
L 226.772407 -108.397798 
L 229.481681 -109.33341 
L 232.190955 -116.99373 
L 234.900228 -131.61266 
L 237.609502 -137.050903 
L 240.318776 -160.73357 
L 243.028049 -184.942519 
L 245.737323 -208.157381 
L 248.446597 -223.361069 
L 251.15587 -222.483933 
L 253.865144 -211.899827 
L 256.574418 -195.175771 
L 259.283691 -174.124511 
L 261.992965 -155.997037 
L 264.702238 -138.45432 
L 267.411512 -138.337368 
L 270.120786 -95.006858 
L 272.830059 -96.468751 
L 275.539333 -81.732869 
L 278.248607 -79.218413 
L 280.95788 -75.417491 
L 283.667154 -73.663219 
L 286.376428 -70.0962 
L 289.085701 -73.019986 
L 291.794975 -69.394492 
L 294.504249 -73.136938 
L 297.213522 -74.540355 
L 299.922796 -78.16585 
L 302.632069 -78.57518 
L 305.341343 -80.037073 
L 308.050617 -85.650742 
L 310.75989 -97.345887 
L 313.469164 -111.497012 
L 316.178438 -133.016078 
L 318.887711 -170.557491 
L 321.596985 -187.983257 
L 324.306259 -263.007609 
L 327.015532 -288.327597 
L 329.724806 -329.552981 
L 332.434079 -333.12 
L 335.143353 -324.874923 
L 337.852627 -287.684364 
L 340.5619 -246.283552 
L 343.271174 -222.25003 
L 345.980448 -184.357762 
L 348.689721 -171.902433 
L 351.398995 -135.121204 
L 354.108269 -124.537098 
L 356.817542 -125.238807 
L 359.526816 -118.514098 
L 362.23609 -118.514098 
L 364.945363 -134.185592 
L 367.654637 -155.763134 
L 370.36391 -163.774308 
L 373.073184 -140.793349 
L 375.782458 -107.403711 
L 378.491731 -94.188198 
L 381.201005 -88.808431 
L 383.910279 -80.095549 
L 386.619552 -73.897122 
L 389.328826 -71.675045 
L 392.0381 -71.499618 
L 394.747373 -68.926686 
L 397.456647 -69.511443 
L 400.165921 -66.880036 
L 402.875194 -67.464793 
L 405.584468 -67.055463 
L 408.293741 -66.470705 
L 411.003015 -66.704608 
L 413.712289 -65.652045 
L 416.421562 -65.59357 
L 419.130836 -65.710521 
L 421.84011 -65.535094 
L 424.549383 -65.768997 
L 427.258657 -65.18424 
L 429.967931 -65.476618 
L 432.677204 -65.476618 
L 435.386478 -65.59357 
L 438.095751 -66.82156 
L 440.805025 -66.0029 
L 443.514299 -66.880036 
L 446.223572 -67.23089 
L 448.932846 -68.751259 
L 451.64212 -69.920773 
L 454.351393 -74.072549 
L 457.060667 -76.470054 
L 459.769941 -76.820908 
L 462.479214 -76.52853 
L 465.188488 -75.70987 
L 467.897762 -75.125112 
L 470.607035 -71.32419 
L 473.316309 -70.680957 
L 476.025582 -70.622482 
L 478.734856 -69.336016 
L 481.44413 -67.815647 
L 484.153403 -67.932599 
L 486.862677 -68.751259 
L 489.571951 -67.406317 
L 492.281224 -67.347841 
L 494.990498 -68.224977 
L 497.699772 -68.04955 
L 500.409045 -67.113938 
L 503.118319 -67.172414 
L 505.827593 -68.634307 
L 508.536866 -67.23089 
L 511.24614 -68.166501 
L 513.955413 -68.341929 
L 516.664687 -68.575831 
L 519.373961 -70.037725 
L 522.083234 -70.564006 
L 524.792508 -71.558093 
L 527.501782 -71.265715 
L 530.211055 -71.850472 
L 532.920329 -71.148763 
L 535.629603 -70.797909 
L 538.338876 -69.452967 
L 541.04815 -68.224977 
L 543.757423 -67.23089 
L 546.466697 -66.82156 
L 549.175971 -67.113938 
L 551.885244 -66.061375 
L 554.594518 -65.535094 
L 557.303792 -65.827473 
L 560.013065 -65.59357 
L 562.722339 -65.418142 
L 562.722339 -64.657958 
L 562.722339 -64.657958 
L 560.013065 -64.657958 
L 557.303792 -64.657958 
L 554.594518 -64.657958 
L 551.885244 -64.657958 
L 549.175971 -64.657958 
L 546.466697 -64.657958 
L 543.757423 -64.657958 
L 541.04815 -64.657958 
L 538.338876 -64.657958 
L 535.629603 -64.657958 
L 532.920329 -64.657958 
L 530.211055 -64.657958 
L 527.501782 -64.657958 
L 524.792508 -64.657958 
L 522.083234 -64.657958 
L 519.373961 -64.657958 
L 516.664687 -64.657958 
L 513.955413 -64.657958 
L 511.24614 -64.657958 
L 508.536866 -64.657958 
L 505.827593 -64.657958 
L 503.118319 -64.657958 
L 500.409045 -64.657958 
L 497.699772 -64.657958 
L 494.990498 -64.657958 
L 492.281224 -64.657958 
L 489.571951 -64.657958 
L 486.862677 -64.657958 
L 484.153403 -64.657958 
L 481.44413 -64.657958 
L 478.734856 -64.657958 
L 476.025582 -64.657958 
L 473.316309 -64.657958 
L 470.607035 -64.657958 
L 467.897762 -64.657958 
L 465.188488 -64.657958 
L 462.479214 -64.657958 
L 459.769941 -64.657958 
L 457.060667 -64.657958 
L 454.351393 -64.657958 
L 451.64212 -64.657958 
L 448.932846 -64.657958 
L 446.223572 -64.657958 
L 443.514299 -64.657958 
L 440.805025 -64.657958 
L 438.095751 -64.657958 
L 435.386478 -64.657958 
L 432.677204 -64.657958 
L 429.967931 -64.657958 
L 427.258657 -64.657958 
L 424.549383 -64.657958 
L 421.84011 -64.657958 
L 419.130836 -64.657958 
L 416.421562 -64.657958 
L 413.712289 -64.657958 
L 411.003015 -64.657958 
L 408.293741 -64.657958 
L 405.584468 -64.657958 
L 402.875194 -64.657958 
L 400.165921 -64.657958 
L 397.456647 -64.657958 
L 394.747373 -64.657958 
L 392.0381 -64.657958 
L 389.328826 -64.657958 
L 386.619552 -64.657958 
L 383.910279 -64.657958 
L 381.201005 -64.657958 
L 378.491731 -64.657958 
L 375.782458 -64.657958 
L 373.073184 -64.657958 
L 370.36391 -64.657958 
L 367.654637 -64.657958 
L 364.945363 -64.657958 
L 362.23609 -64.657958 
L 359.526816 -64.657958 
L 356.817542 -64.657958 
L 354.108269 -64.657958 
L 351.398995 -64.657958 
L 348.689721 -64.657958 
L 345.980448 -64.657958 
L 343.271174 -64.657958 
L 340.5619 -64.657958 
L 337.852627 -64.657958 
L 335.143353 -64.657958 
L 332.434079 -64.657958 
L 329.724806 -64.657958 
L 327.015532 -64.657958 
L 324.306259 -64.657958 
L 321.596985 -64.657958 
L 318.887711 -64.657958 
L 316.178438 -64.657958 
L 313.469164 -64.657958 
L 310.75989 -64.657958 
L 308.050617 -64.657958 
L 305.341343 -64.657958 
L 302.632069 -64.657958 
L 299.922796 -64.657958 
L 297.213522 -64.657958 
L 294.504249 -64.657958 
L 291.794975 -64.657958 
L 289.085701 -64.657958 
L 286.376428 -64.657958 
L 283.667154 -64.657958 
L 280.95788 -64.657958 
L 278.248607 -64.657958 
L 275.539333 -64.657958 
L 272.830059 -64.657958 
L 270.120786 -64.657958 
L 267.411512 -64.657958 
L 264.702238 -64.657958 
L 261.992965 -64.657958 
L 259.283691 -64.657958 
L 256.574418 -64.657958 
L 253.865144 -64.657958 
L 251.15587 -64.657958 
L 248.446597 -64.657958 
L 245.737323 -64.657958 
L 243.028049 -64.657958 
L 240.318776 -64.657958 
L 237.609502 -64.657958 
L 234.900228 -64.657958 
L 232.190955 -64.657958 
L 229.481681 -64.657958 
L 226.772407 -64.657958 
L 224.063134 -64.657958 
L 221.35386 -64.657958 
L 218.644587 -64.657958 
L 215.935313 -64.657958 
L 213.226039 -64.657958 
L 210.516766 -64.657958 
L 207.807492 -64.657958 
L 205.098218 -64.657958 
L 202.388945 -64.657958 
L 199.679671 -64.657958 
L 196.970397 -64.657958 
L 194.261124 -64.657958 
L 191.55185 -64.657958 
L 188.842577 -64.657958 
L 186.133303 -64.657958 
L 183.424029 -64.657958 
L 180.714756 -64.657958 
L 178.005482 -64.657958 
L 175.296208 -64.657958 
L 172.586935 -64.657958 
L 169.877661 -64.657958 
L 167.168387 -64.657958 
L 164.459114 -64.657958 
L 161.74984 -64.657958 
L 159.040566 -64.657958 
L 156.331293 -64.657958 
L 153.622019 -64.657958 
L 150.912746 -64.657958 
L 148.203472 -64.657958 
L 145.494198 -64.657958 
L 142.784925 -64.657958 
L 140.075651 -64.657958 
L 137.366377 -64.657958 
L 134.657104 -64.657958 
L 131.94783 -64.657958 
L 129.238556 -64.657958 
L 126.529283 -64.657958 
L 123.820009 -64.657958 
L 121.110735 -64.657958 
L 118.401462 -64.657958 
L 115.692188 -64.657958 
L 112.982915 -64.657958 
L 110.273641 -64.657958 
L 107.564367 -64.657958 
L 104.855094 -64.657958 
L 102.14582 -64.657958 
L 99.436546 -64.657958 
L 96.727273 -64.657958 
z
" style="stroke: #ffa500; stroke-opacity: 0.5"/>
    </defs>
    <g clip-path="url(#p30c32c093f)">
     <use xlink:href="#mf0fdfad7b8" x="0" y="360" style="fill: #ffa500; fill-opacity: 0.5; stroke: #ffa500; stroke-opacity: 0.5"/>
    </g>
   </g>
   <g id="matplotlib.axis_3">
    <g id="ytick_6">
     <g id="line2d_22">
      <defs>
       <path id="mfe69925a36" d="M 0 0 
L 3.5 0 
" style="stroke: #000000; stroke-width: 0.8"/>
      </defs>
      <g>
       <use xlink:href="#mfe69925a36" x="662.83" y="295.342042" style="stroke: #000000; stroke-width: 0.8"/>
      </g>
     </g>
     <g id="text_25">
      <!-- 0 -->
      <g transform="translate(669.83 299.141261) scale(0.1 -0.1)">
       <use xlink:href="#DejaVuSans-30"/>
      </g>
     </g>
    </g>
    <g id="ytick_7">
     <g id="line2d_23">
      <g>
       <use xlink:href="#mfe69925a36" x="662.83" y="236.866319" style="stroke: #000000; stroke-width: 0.8"/>
      </g>
     </g>
     <g id="text_26">
      <!-- 1000 -->
      <g transform="translate(669.83 240.665538) scale(0.1 -0.1)">
       <use xlink:href="#DejaVuSans-31"/>
       <use xlink:href="#DejaVuSans-30" transform="translate(63.623047 0)"/>
       <use xlink:href="#DejaVuSans-30" transform="translate(127.246094 0)"/>
       <use xlink:href="#DejaVuSans-30" transform="translate(190.869141 0)"/>
      </g>
     </g>
    </g>
    <g id="ytick_8">
     <g id="line2d_24">
      <g>
       <use xlink:href="#mfe69925a36" x="662.83" y="178.390597" style="stroke: #000000; stroke-width: 0.8"/>
      </g>
     </g>
     <g id="text_27">
      <!-- 2000 -->
      <g transform="translate(669.83 182.189816) scale(0.1 -0.1)">
       <use xlink:href="#DejaVuSans-32"/>
       <use xlink:href="#DejaVuSans-30" transform="translate(63.623047 0)"/>
       <use xlink:href="#DejaVuSans-30" transform="translate(127.246094 0)"/>
       <use xlink:href="#DejaVuSans-30" transform="translate(190.869141 0)"/>
      </g>
     </g>
    </g>
    <g id="ytick_9">
     <g id="line2d_25">
      <g>
       <use xlink:href="#mfe69925a36" x="662.83" y="119.914874" style="stroke: #000000; stroke-width: 0.8"/>
      </g>
     </g>
     <g id="text_28">
      <!-- 3000 -->
      <g transform="translate(669.83 123.714093) scale(0.1 -0.1)">
       <use xlink:href="#DejaVuSans-33"/>
       <use xlink:href="#DejaVuSans-30" transform="translate(63.623047 0)"/>
       <use xlink:href="#DejaVuSans-30" transform="translate(127.246094 0)"/>
       <use xlink:href="#DejaVuSans-30" transform="translate(190.869141 0)"/>
      </g>
     </g>
    </g>
    <g id="ytick_10">
     <g id="line2d_26">
      <g>
       <use xlink:href="#mfe69925a36" x="662.83" y="61.439152" style="stroke: #000000; stroke-width: 0.8"/>
      </g>
     </g>
     <g id="text_29">
      <!-- 4000 -->
      <g transform="translate(669.83 65.238371) scale(0.1 -0.1)">
       <use xlink:href="#DejaVuSans-34"/>
       <use xlink:href="#DejaVuSans-30" transform="translate(63.623047 0)"/>
       <use xlink:href="#DejaVuSans-30" transform="translate(127.246094 0)"/>
       <use xlink:href="#DejaVuSans-30" transform="translate(190.869141 0)"/>
      </g>
     </g>
    </g>
    <g id="text_30">
     <!-- Deaths -->
     <g transform="translate(706.878438 178.83524) rotate(-90) scale(0.1 -0.1)">
      <defs>
       <path id="DejaVuSans-44" d="M 1259 4147 
L 1259 519 
L 2022 519 
Q 2988 519 3436 956 
Q 3884 1394 3884 2338 
Q 3884 3275 3436 3711 
Q 2988 4147 2022 4147 
L 1259 4147 
z
M 628 4666 
L 1925 4666 
Q 3281 4666 3915 4102 
Q 4550 3538 4550 2338 
Q 4550 1131 3912 565 
Q 3275 0 1925 0 
L 628 0 
L 628 4666 
z
" transform="scale(0.015625)"/>
      </defs>
      <use xlink:href="#DejaVuSans-44"/>
      <use xlink:href="#DejaVuSans-65" transform="translate(77.001953 0)"/>
      <use xlink:href="#DejaVuSans-61" transform="translate(138.525391 0)"/>
      <use xlink:href="#DejaVuSans-74" transform="translate(199.804688 0)"/>
      <use xlink:href="#DejaVuSans-68" transform="translate(239.013672 0)"/>
      <use xlink:href="#DejaVuSans-73" transform="translate(302.392578 0)"/>
     </g>
    </g>
   </g>
   <g id="patch_9">
    <path d="M 69.77 295.342042 
L 69.77 26.88 
" style="fill: none; stroke: #000000; stroke-width: 0.8; stroke-linejoin: miter; stroke-linecap: square"/>
   </g>
   <g id="patch_10">
    <path d="M 662.83 295.342042 
L 662.83 26.88 
" style="fill: none; stroke: #000000; stroke-width: 0.8; stroke-linejoin: miter; stroke-linecap: square"/>
   </g>
   <g id="patch_11">
    <path d="M 69.77 295.342042 
L 662.83 295.342042 
" style="fill: none; stroke: #000000; stroke-width: 0.8; stroke-linejoin: miter; stroke-linecap: square"/>
   </g>
   <g id="patch_12">
    <path d="M 69.77 26.88 
L 662.83 26.88 
" style="fill: none; stroke: #000000; stroke-width: 0.8; stroke-linejoin: miter; stroke-linecap: square"/>
   </g>
   <g id="legend_2">
    <g id="patch_13">
     <path d="M 589.733125 49.558125 
L 655.83 49.558125 
Q 657.83 49.558125 657.83 47.558125 
L 657.83 33.88 
Q 657.83 31.88 655.83 31.88 
L 589.733125 31.88 
Q 587.733125 31.88 587.733125 33.88 
L 587.733125 47.558125 
Q 587.733125 49.558125 589.733125 49.558125 
z
" style="fill: #ffffff; opacity: 0.8; stroke: #cccccc; stroke-linejoin: miter"/>
    </g>
    <g id="patch_14">
     <path d="M 591.733125 43.478438 
L 611.733125 43.478438 
L 611.733125 36.478438 
L 591.733125 36.478438 
z
" style="fill: #ffa500; fill-opacity: 0.5; stroke: #ffa500; stroke-opacity: 0.5; stroke-linejoin: miter"/>
    </g>
    <g id="text_31">
     <!-- deaths -->
     <g transform="translate(619.733125 43.478438) scale(0.1 -0.1)">
      <use xlink:href="#DejaVuSans-64"/>
      <use xlink:href="#DejaVuSans-65" transform="translate(63.476562 0)"/>
      <use xlink:href="#DejaVuSans-61" transform="translate(125 0)"/>
      <use xlink:href="#DejaVuSans-74" transform="translate(186.279297 0)"/>
      <use xlink:href="#DejaVuSans-68" transform="translate(225.488281 0)"/>
      <use xlink:href="#DejaVuSans-73" transform="translate(288.867188 0)"/>
     </g>
    </g>
   </g>
  </g>
 </g>
 <defs>
  <clipPath id="p30c32c093f">
   <rect x="69.77" y="26.88" width="593.06" height="268.462042"/>
  </clipPath>
 </defs>
</svg>
